#VRML V2.0 utf8
# 3D model generated by easyeda2kicad.py (https://github.com/uPesy/easyeda2kicad.py)

Shape{
    appearance Appearance {
        material  Material 	{
            diffuseColor 0.25098039215686274 0.25098039215686274 0.25098039215686274
            specularColor 0.12549019607843137 0.12549019607843137 0.12549019607843137
            ambientIntensity 0.251
            transparency 0.0
            shininess 0.5
        }
    }
    geometry IndexedFaceSet {
        ccw TRUE
        solid FALSE
        coord DEF co Coordinate {
            point [
                -0.1575 0.1575 0.0079, -1.2992 0.1575 0.0079, -1.2992 1.2992 0.0079, -0.0809 -0.4945 0.0079, -0.0488 -0.4945 0.0079, -0.0373 -0.4952 0.0079, -0.1575 -0.1575 0.0079, -0.1971 -0.3764 0.0079, -0.213 -0.3764 0.0079, -0.1343 -0.4011 0.0079, -0.1398 -0.4112 0.0079, -0.0373 1.2992 0.0079, -0.0488 -0.3764 0.0079, -0.0821 -0.3764 0.0079, -0.0992 -0.3782 0.0079, -0.113 -0.3831 0.0079, -0.1259 -0.3917 0.0079, -0.126 -0.3918 0.0079, -0.143 -0.4228 0.0079, -0.1439 -0.434 0.0079, -0.1525 -0.4945 0.0079, -0.1422 -0.4498 0.0079, -0.138 -0.4621 0.0079, -0.1312 -0.4727 0.0079, -0.2418 -0.4945 0.0079, -0.2591 -0.4945 0.0079, -1.2992 -0.4952 0.0079, -1.2992 -0.1575 0.0079, -0.1215 -0.482 0.0079, -0.1091 -0.4892 0.0079, -0.0955 -0.4932 0.0079, -0.1698 -0.4945 0.0079, -0.1811 -0.4614 0.0079, -0.2298 -0.4614 0.0079, 0.0932 -0.4959 0.0079, 1.2992 -0.4952 0.0079, 1.2992 -0.8268 0.0079, 0.8268 -1.2992 0.0079, -0.0373 -1.2992 0.0079, 0.0899 -0.4959 0.0079, 0.0852 -0.4952 0.0079, -0.0257 -0.4815 0.0079, -0.0257 -0.4945 0.0079, 0.0376 -0.4945 0.0079, -0.0229 -0.3764 0.0079, -0.0229 -0.3894 0.0079, 0.0607 -0.4884 0.0079, 0.0607 -0.4754 0.0079, 0.0376 -0.3764 0.0079, 0.8268 1.2992 0.0079, 0.1575 0.1575 0.0079, 1.2992 0.8268 0.0079, 1.2992 0.1575 0.0079, 0.0218 -0.4412 0.0079, 0.0218 -0.4815 0.0079, -0.02 -0.4412 0.0079, -0.02 -0.4282 0.0079, 0.0218 -0.4282 0.0079, 0.0218 -0.3894 0.0079, 0.1 -0.3892 0.0079, 0.1088 -0.3924 0.0079, 0.0628 -0.4766 0.0079, 0.117 -0.3979 0.0079, 0.1241 -0.4058 0.0079, 0.1327 -0.4367 0.0079, 0.1315 -0.4495 0.0079, 0.1283 -0.4596 0.0079, 0.102 -0.4817 0.0079, 0.091 -0.483 0.0079, 0.1106 -0.4786 0.0079, 0.1179 -0.4737 0.0079, 0.1234 -0.4678 0.0079, 0.0753 -0.4812 0.0079, 0.2191 -0.4945 0.0079, 0.1001 -0.4952 0.0079, 0.1586 -0.4945 0.0079, 0.1077 -0.4944 0.0079, 0.1192 -0.4905 0.0079, 0.2033 -0.3764 0.0079, 0.1575 -0.1575 0.0079, 0.2191 -0.3764 0.0079, 1.2992 -0.1575 0.0079, 0.129 -0.4149 0.0079, 0.1321 -0.4275 0.0079, 0.1247 -0.3862 0.0079, 0.1354 -0.3965 0.0079, 0.1423 -0.4075 0.0079, 0.1287 -0.4844 0.0079, 0.1376 -0.4751 0.0079, 0.1586 -0.4815 0.0079, 0.1438 -0.4639 0.0079, 0.2033 -0.4815 0.0079, 0.1474 -0.4514 0.0079, 0.1485 -0.4377 0.0079, 0.1468 -0.4209 0.0079, 0.1135 -0.3797 0.0079, 0.1003 -0.3759 0.0079, 0.0885 -0.3749 0.0079, 0.0743 -0.3759 0.0079, 0.0607 -0.3796 0.0079, 0.0607 -0.3955 0.0079, 0.074 -0.3898 0.0079, 0.0883 -0.3879 0.0079, -1.2992 -1.2992 0.0079, 0.0733 -0.4935 0.0079, 1.2992 0.1575 0.0866, 1.2992 0.1476 0.0866, 0.3543 0.1476 0.0866, 1.2992 -0.1476 0.0866, 1.2992 -0.1575 0.0866, 0.3543 -0.1476 0.0866, 0.1575 -0.1575 0.0866, 0.1575 0.1575 0.0866, -1.2992 -0.1575 0.0866, -1.2992 -0.1476 0.0866, -0.3543 -0.1476 0.0866, -1.2992 0.1476 0.0866, -1.2992 0.1575 0.0866, -0.3543 0.1476 0.0866, -0.1575 0.1575 0.0866, -0.1575 -0.1575 0.0866
            ]
        }
        coordIndex [
            0,1,2,-1,3,4,5,-1,6,7,8,-1,7,9,10,-1,2,11,0,-1,0,11,12,-1,0,12,6,-1,6,12,13,-1,6,13,14,-1,14,15,6,-1,6,15,16,-1,6,16,7,-1,7,16,17,-1,7,17,9,-1,10,18,7,-1,7,18,19,-1,7,19,20,-1,19,21,20,-1,20,21,22,-1,20,22,23,-1,24,5,25,-1,25,5,26,-1,25,26,8,-1,8,26,27,-1,8,27,6,-1,23,28,20,-1,20,28,29,-1,20,29,30,-1,30,3,20,-1,20,3,5,-1,20,5,31,-1,31,5,24,-1,31,24,32,-1,32,24,33,-1,34,35,36,-1,36,37,34,-1,34,37,38,-1,34,38,39,-1,39,38,40,-1,41,42,5,-1,5,42,43,-1,4,12,5,-1,5,12,11,-1,5,11,41,-1,41,11,44,-1,41,44,45,-1,46,43,47,-1,47,43,48,-1,11,49,50,-1,50,49,51,-1,50,51,52,-1,53,54,55,-1,55,54,41,-1,55,41,56,-1,56,41,45,-1,56,45,57,-1,57,45,58,-1,59,60,61,-1,61,60,62,-1,61,62,63,-1,64,65,61,-1,61,65,66,-1,67,68,69,-1,69,68,70,-1,66,71,61,-1,61,71,70,-1,61,70,72,-1,72,70,68,-1,73,74,75,-1,75,74,76,-1,75,76,77,-1,78,79,80,-1,80,79,81,-1,80,81,73,-1,73,81,35,-1,73,35,74,-1,74,35,34,-1,11,50,44,-1,44,50,79,-1,44,79,48,-1,63,82,61,-1,61,82,83,-1,61,83,64,-1,84,79,85,-1,85,79,78,-1,85,78,86,-1,77,87,75,-1,75,87,88,-1,75,88,89,-1,89,88,90,-1,89,90,91,-1,90,92,91,-1,91,92,93,-1,91,93,78,-1,78,93,94,-1,78,94,86,-1,84,95,79,-1,79,95,96,-1,79,96,97,-1,97,98,79,-1,79,98,99,-1,79,99,48,-1,48,99,100,-1,48,100,47,-1,47,100,101,-1,47,101,61,-1,61,101,102,-1,61,102,59,-1,103,26,38,-1,38,26,5,-1,38,5,40,-1,40,5,43,-1,40,43,104,-1,104,43,46,-1,105,106,107,-1,108,109,110,-1,110,109,111,-1,110,111,107,-1,107,111,112,-1,107,112,105,-1,113,114,115,-1,116,117,118,-1,118,117,119,-1,118,119,115,-1,115,119,120,-1,115,120,113,-1,
        ]
    }
}
Shape{
    appearance Appearance {
        material  Material 	{
            diffuseColor 1.0 1.0 1.0
            specularColor 0.5019607843137255 0.5019607843137255 0.5019607843137255
            ambientIntensity 1.0
            transparency 0.0
            shininess 0.5
        }
    }
    geometry IndexedFaceSet {
        ccw TRUE
        solid FALSE
        coord DEF co Coordinate {
            point [
                -1.2402 0.0 0.2047, -1.2286 -0.1689 0.2047, -1.2342 -0.1215 0.4294, -1.1942 -0.3346 0.2047, -1.2163 -0.2419 0.4294, -1.2272 -0.1686 0.4294, -1.1367 -0.4937 0.4294, -1.1458 -0.4746 0.4294, -1.1375 -0.4941 0.2047, -1.1868 -0.36 0.4294, -1.1932 -0.3343 0.4294, -1.0937 -0.5846 0.4294, -1.0596 -0.6444 0.2047, -1.0584 -0.6436 0.4294, -1.0312 -0.689 0.4294, -0.962 -0.7826 0.2047, -0.9618 -0.7825 0.4294, -0.9587 -0.7867 0.4294, -0.8465 -0.9063 0.2047, -0.8769 -0.8769 0.4294, -0.7152 -1.0132 0.2047, -0.7868 -0.9586 0.4294, -0.8456 -0.9053 0.4294, -0.5703 -1.1005 0.4294, -0.5846 -1.0937 0.4294, -0.5706 -1.1011 0.2047, -0.689 -1.0311 0.4294, -0.7145 -1.0122 0.4294, -0.4746 -1.1457 0.4294, -0.4153 -1.1685 0.2047, -0.4148 -1.1671 0.4294, -0.36 -1.1867 0.4294, -0.2523 -1.2142 0.2047, -0.2522 -1.2137 0.4294, -0.242 -1.2163 0.4294, -0.0846 -1.2373 0.2047, -0.1216 -1.2342 0.4294, 0.0846 -1.2373 0.2047, -0.0 -1.2401 0.4294, -0.0846 -1.236 0.4294, 0.2522 -1.2137 0.4294, 0.2419 -1.2163 0.4294, 0.2523 -1.2142 0.2047, 0.1215 -1.2342 0.4294, 0.0846 -1.236 0.4294, 0.36 -1.1867 0.4294, 0.4153 -1.1685 0.2047, 0.4148 -1.1671 0.4294, 0.4746 -1.1457 0.4294, 0.5705 -1.1011 0.2047, 0.5703 -1.1005 0.4294, 0.5846 -1.0937 0.4294, 0.7152 -1.0132 0.2047, 0.689 -1.0311 0.4294, 0.8465 -0.9063 0.2047, 0.7867 -0.9586 0.4294, 0.7145 -1.0122 0.4294, 0.9618 -0.7825 0.4294, 0.9586 -0.7867 0.4294, 0.962 -0.7826 0.2047, 0.8769 -0.8769 0.4294, 0.8456 -0.9053 0.4294, 1.0311 -0.689 0.4294, 1.0596 -0.6444 0.2047, 1.0583 -0.6436 0.4294, 1.0937 -0.5846 0.4294, 1.1375 -0.4941 0.2047, 1.1367 -0.4937 0.4294, 1.1457 -0.4746 0.4294, 1.1942 -0.3346 0.2047, 1.1867 -0.36 0.4294, 1.2286 -0.1689 0.2047, 1.2163 -0.2419 0.4294, 1.1932 -0.3343 0.4294, 1.2401 0.0 0.2047, 1.2342 -0.1215 0.4294, 1.2272 -0.1686 0.4294, 1.2286 0.1689 0.2047, 1.2342 0.1216 0.4294, 1.2401 0.0 0.4294, 1.1942 0.3346 0.2047, 1.2163 0.242 0.4294, 1.2272 0.1687 0.4294, 1.1367 0.4937 0.4294, 1.1457 0.4746 0.4294, 1.1375 0.4941 0.2047, 1.1867 0.36 0.4294, 1.1932 0.3344 0.4294, 1.0937 0.5846 0.4294, 1.0596 0.6444 0.2047, 1.0583 0.6436 0.4294, 1.0311 0.689 0.4294, 0.962 0.7827 0.2047, 0.9618 0.7825 0.4294, 0.9586 0.7868 0.4294, 0.8465 0.9064 0.2047, 0.8769 0.8769 0.4294, 0.7152 1.0132 0.2047, 0.7867 0.9587 0.4294, 0.8456 0.9054 0.4294, 0.5703 1.1005 0.4294, 0.5846 1.0937 0.4294, 0.5705 1.1011 0.2047, 0.689 1.0312 0.4294, 0.7145 1.0123 0.4294, 0.4746 1.1458 0.4294, 0.4153 1.1686 0.2047, 0.4148 1.1672 0.4294, 0.36 1.1868 0.4294, 0.2523 1.2142 0.2047, 0.2522 1.2138 0.4294, 0.2419 1.2163 0.4294, 0.0846 1.2373 0.2047, 0.1215 1.2342 0.4294, -0.0846 1.2373 0.2047, -0.0 1.2402 0.4294, 0.0846 1.236 0.4294, -0.2522 1.2138 0.4294, -0.242 1.2163 0.4294, -0.2523 1.2142 0.2047, -0.1216 1.2342 0.4294, -0.0846 1.236 0.4294, -0.36 1.1868 0.4294, -0.4153 1.1686 0.2047, -0.4148 1.1672 0.4294, -0.4746 1.1458 0.4294, -0.5706 1.1011 0.2047, -0.5703 1.1005 0.4294, -0.5846 1.0937 0.4294, -0.7152 1.0132 0.2047, -0.689 1.0312 0.4294, -0.8465 0.9064 0.2047, -0.7868 0.9587 0.4294, -0.7145 1.0123 0.4294, -0.9618 0.7825 0.4294, -0.9587 0.7868 0.4294, -0.962 0.7827 0.2047, -0.8769 0.8769 0.4294, -0.8456 0.9054 0.4294, -1.0312 0.689 0.4294, -1.0596 0.6444 0.2047, -1.0584 0.6436 0.4294, -1.0937 0.5846 0.4294, -1.1375 0.4941 0.2047, -1.1367 0.4937 0.4294, -1.1458 0.4746 0.4294, -1.1942 0.3346 0.2047, -1.1868 0.36 0.4294, -1.2286 0.1689 0.2047, -1.2163 0.242 0.4294, -1.1932 0.3344 0.4294, -1.2402 0.0 0.4294, -1.2342 0.1216 0.4294, -1.2272 0.1687 0.4294
            ]
        }
        coordIndex [
            0,1,2,-1,3,4,1,-1,1,4,5,-1,1,5,2,-1,6,7,8,-1,8,7,9,-1,8,9,3,-1,3,9,10,-1,3,10,4,-1,6,8,11,-1,11,8,12,-1,11,12,13,-1,13,12,14,-1,14,12,15,-1,14,15,16,-1,16,15,17,-1,17,15,18,-1,17,18,19,-1,20,21,18,-1,18,21,22,-1,18,22,19,-1,23,24,25,-1,25,24,26,-1,25,26,20,-1,20,26,27,-1,20,27,21,-1,23,25,28,-1,28,25,29,-1,28,29,30,-1,30,29,31,-1,31,29,32,-1,31,32,33,-1,33,32,34,-1,34,32,35,-1,34,35,36,-1,37,38,35,-1,35,38,39,-1,35,39,36,-1,40,41,42,-1,42,41,43,-1,42,43,37,-1,37,43,44,-1,37,44,38,-1,40,42,45,-1,45,42,46,-1,45,46,47,-1,47,46,48,-1,48,46,49,-1,48,49,50,-1,50,49,51,-1,51,49,52,-1,51,52,53,-1,54,55,52,-1,52,55,56,-1,52,56,53,-1,57,58,59,-1,59,58,60,-1,59,60,54,-1,54,60,61,-1,54,61,55,-1,57,59,62,-1,62,59,63,-1,62,63,64,-1,64,63,65,-1,65,63,66,-1,65,66,67,-1,67,66,68,-1,68,66,69,-1,68,69,70,-1,71,72,69,-1,69,72,73,-1,69,73,70,-1,74,75,71,-1,71,75,76,-1,71,76,72,-1,77,78,74,-1,74,78,79,-1,74,79,75,-1,80,81,77,-1,77,81,82,-1,77,82,78,-1,83,84,85,-1,85,84,86,-1,85,86,80,-1,80,86,87,-1,80,87,81,-1,83,85,88,-1,88,85,89,-1,88,89,90,-1,90,89,91,-1,91,89,92,-1,91,92,93,-1,93,92,94,-1,94,92,95,-1,94,95,96,-1,97,98,95,-1,95,98,99,-1,95,99,96,-1,100,101,102,-1,102,101,103,-1,102,103,97,-1,97,103,104,-1,97,104,98,-1,100,102,105,-1,105,102,106,-1,105,106,107,-1,107,106,108,-1,108,106,109,-1,108,109,110,-1,110,109,111,-1,111,109,112,-1,111,112,113,-1,114,115,112,-1,112,115,116,-1,112,116,113,-1,117,118,119,-1,119,118,120,-1,119,120,114,-1,114,120,121,-1,114,121,115,-1,117,119,122,-1,122,119,123,-1,122,123,124,-1,124,123,125,-1,125,123,126,-1,125,126,127,-1,127,126,128,-1,128,126,129,-1,128,129,130,-1,131,132,129,-1,129,132,133,-1,129,133,130,-1,134,135,136,-1,136,135,137,-1,136,137,131,-1,131,137,138,-1,131,138,132,-1,134,136,139,-1,139,136,140,-1,139,140,141,-1,141,140,142,-1,142,140,143,-1,142,143,144,-1,144,143,145,-1,145,143,146,-1,145,146,147,-1,148,149,146,-1,146,149,150,-1,146,150,147,-1,2,151,0,-1,0,151,152,-1,0,152,148,-1,148,152,153,-1,148,153,149,-1,
        ]
    }
}
Shape{
    appearance Appearance {
        material  Material 	{
            diffuseColor 0.25098039215686274 0.25098039215686274 0.25098039215686274
            specularColor 0.12549019607843137 0.12549019607843137 0.12549019607843137
            ambientIntensity 0.251
            transparency 0.0
            shininess 0.5
        }
    }
    geometry IndexedFaceSet {
        ccw TRUE
        solid FALSE
        coord DEF co Coordinate {
            point [
                1.245 0.2953 0.2047, 1.245 0.2953 0.3228, 1.1994 0.4455 0.2047, 1.1994 0.4455 0.3228, 1.1358 0.5891 0.2047, 1.1358 0.5891 0.3228, 1.0551 0.7238 0.2047, 1.0551 0.7238 0.3228, 0.9586 0.8476 0.2047, 0.9586 0.8476 0.3228, 0.8475 0.9586 0.2047, 0.8475 0.9586 0.3228, 0.7238 1.0552 0.2047, 0.7238 1.0552 0.3228, 0.5891 1.1359 0.2047, 0.5891 1.1359 0.3228, 0.4455 1.1995 0.2047, 0.4455 1.1995 0.3228, 0.2953 1.245 0.2047, 0.2953 1.245 0.3228, 0.2953 -1.245 0.2047, 0.2953 -1.245 0.3228, 0.4455 -1.1994 0.2047, 0.4455 -1.1994 0.3228, 0.5891 -1.1358 0.2047, 0.5891 -1.1358 0.3228, 0.7238 -1.0551 0.2047, 0.7238 -1.0551 0.3228, 0.8475 -0.9586 0.2047, 0.8475 -0.9586 0.3228, 0.9586 -0.8475 0.2047, 0.9586 -0.8475 0.3228, 1.0551 -0.7238 0.2047, 1.0551 -0.7238 0.3228, 1.1358 -0.5891 0.2047, 1.1358 -0.5891 0.3228, 1.1994 -0.4455 0.2047, 1.1994 -0.4455 0.3228, 1.245 -0.2953 0.2047, 1.245 -0.2953 0.3228, -1.2992 1.2992 0.4016, -0.2953 1.2992 0.4016, -1.2992 1.2992 0.0079, -0.2953 1.2992 0.2047, 0.2953 1.2992 0.3228, 0.8268 1.2992 0.3228, 0.2953 1.2992 0.2047, 0.8268 1.2992 0.0079, -0.0373 1.2992 0.0079, -0.2953 -1.2992 0.2047, -0.2953 -1.2992 0.4016, -1.2992 -1.2992 0.4016, 0.8268 -1.2992 0.3228, 0.2953 -1.2992 0.3228, 0.8268 -1.2992 0.0079, 0.2953 -1.2992 0.2047, -0.0373 -1.2992 0.0079, -1.2992 -1.2992 0.0079, 1.2992 -0.2953 0.2047, 1.2992 -0.4952 0.0079, 1.2992 -0.1575 0.0079, 1.2992 0.1575 0.0866, 1.2992 0.1575 0.0079, 1.2992 0.2953 0.2047, 1.2992 0.8268 0.0079, 1.2992 0.2953 0.3228, 1.2992 0.8268 0.3228, 1.2992 -0.2953 0.3228, 1.2992 -0.8268 0.3228, 1.2992 -0.8268 0.0079, 1.2992 -0.1575 0.0866, 1.2992 -0.1476 0.0866, 1.2992 0.1476 0.0866, -1.1359 0.5891 0.4016, -1.0552 0.7238 0.4016, -1.2992 0.2953 0.4016, -1.245 0.2953 0.4016, -1.1995 0.4455 0.4016, -0.9586 0.8476 0.4016, -0.8476 0.9586 0.4016, -0.7238 1.0552 0.4016, -0.2953 1.245 0.4016, -0.4455 1.1995 0.4016, -0.5891 1.1359 0.4016, -0.5891 -1.1358 0.4016, -0.7238 -1.0551 0.4016, -0.2953 -1.245 0.4016, -0.4455 -1.1994 0.4016, -0.8476 -0.9586 0.4016, -0.9586 -0.8475 0.4016, -1.0552 -0.7238 0.4016, -1.245 -0.2953 0.4016, -1.2992 -0.2953 0.4016, -1.1995 -0.4455 0.4016, -1.1359 -0.5891 0.4016, -0.2953 1.245 0.2047, -0.4455 1.1995 0.2047, -0.5891 1.1359 0.2047, -0.7238 1.0552 0.2047, -0.8476 0.9586 0.2047, -0.9586 0.8476 0.2047, -1.0552 0.7238 0.2047, -1.1359 0.5891 0.2047, -1.1995 0.4455 0.2047, -1.245 0.2953 0.2047, -1.245 -0.2953 0.2047, -1.1995 -0.4455 0.2047, -1.1359 -0.5891 0.2047, -1.0552 -0.7238 0.2047, -0.9586 -0.8475 0.2047, -0.8476 -0.9586 0.2047, -0.7238 -1.0551 0.2047, -0.5891 -1.1358 0.2047, -0.4455 -1.1994 0.2047, -0.2953 -1.245 0.2047, -1.2992 0.1575 0.0079, -1.2992 0.1575 0.0866, -1.2992 0.2953 0.2047, -1.2992 -0.2953 0.2047, -1.2992 -0.1575 0.0866, -1.2992 -0.1575 0.0079, -1.2992 0.1476 0.0866, -1.2992 -0.1476 0.0866, -1.2992 -0.4952 0.0079, 0.0846 -1.2373 0.2047, -0.0846 -1.2373 0.2047, 1.0596 -0.6444 0.2047, 1.1375 -0.4941 0.2047, 1.1942 -0.3346 0.2047, 1.2286 -0.1689 0.2047, 1.2401 0.0 0.2047, 1.2286 0.1689 0.2047, 1.1942 0.3346 0.2047, 0.2523 -1.2142 0.2047, 0.4153 -1.1685 0.2047, 0.5705 -1.1011 0.2047, 0.7152 -1.0132 0.2047, 0.8465 -0.9063 0.2047, 0.962 -0.7826 0.2047, -1.2402 0.0 0.2047, -1.2286 -0.1689 0.2047, -1.1942 -0.3346 0.2047, 1.1375 0.4941 0.2047, 1.0596 0.6444 0.2047, 0.962 0.7827 0.2047, 0.8465 0.9064 0.2047, 0.7152 1.0132 0.2047, 0.5705 1.1011 0.2047, 0.4153 1.1686 0.2047, 0.2523 1.2142 0.2047, 0.0846 1.2373 0.2047, -0.0846 1.2373 0.2047, -0.2523 1.2142 0.2047, -0.4153 1.1686 0.2047, -0.5706 1.1011 0.2047, -0.7152 1.0132 0.2047, -0.8465 0.9064 0.2047, -0.962 0.7827 0.2047, -1.0596 0.6444 0.2047, -1.1375 -0.4941 0.2047, -1.0596 -0.6444 0.2047, -1.2286 0.1689 0.2047, -1.1942 0.3346 0.2047, -1.1375 0.4941 0.2047, -0.962 -0.7826 0.2047, -0.8465 -0.9063 0.2047, -0.7152 -1.0132 0.2047, -0.5706 -1.1011 0.2047, -0.4153 -1.1685 0.2047, -0.2523 -1.2142 0.2047
            ]
        }
        coordIndex [
            0,1,2,-1,2,1,3,-1,2,3,4,-1,4,3,5,-1,4,5,6,-1,6,5,7,-1,6,7,8,-1,8,7,9,-1,8,9,10,-1,10,9,11,-1,10,11,12,-1,12,11,13,-1,12,13,14,-1,14,13,15,-1,14,15,16,-1,16,15,17,-1,16,17,18,-1,18,17,19,-1,20,21,22,-1,22,21,23,-1,22,23,24,-1,24,23,25,-1,24,25,26,-1,26,25,27,-1,26,27,28,-1,28,27,29,-1,28,29,30,-1,30,29,31,-1,30,31,32,-1,32,31,33,-1,32,33,34,-1,34,33,35,-1,34,35,36,-1,36,35,37,-1,36,37,38,-1,38,37,39,-1,40,41,42,-1,42,41,43,-1,44,45,46,-1,46,45,47,-1,46,47,43,-1,43,47,48,-1,43,48,42,-1,49,50,51,-1,52,53,54,-1,54,53,55,-1,54,55,56,-1,56,55,49,-1,56,49,57,-1,57,49,51,-1,58,59,60,-1,61,62,63,-1,63,62,64,-1,63,64,65,-1,65,64,66,-1,58,67,59,-1,59,67,68,-1,59,68,69,-1,60,70,58,-1,58,70,71,-1,58,71,63,-1,63,71,72,-1,63,72,61,-1,67,58,39,-1,39,58,38,-1,1,0,65,-1,65,0,63,-1,21,20,53,-1,53,20,55,-1,44,46,19,-1,19,46,18,-1,40,73,74,-1,75,76,40,-1,40,76,77,-1,40,77,73,-1,74,78,40,-1,40,78,79,-1,40,79,80,-1,81,41,82,-1,82,41,40,-1,82,40,83,-1,83,40,80,-1,51,84,85,-1,50,86,51,-1,51,86,87,-1,51,87,84,-1,85,88,51,-1,51,88,89,-1,51,89,90,-1,91,92,93,-1,93,92,51,-1,93,51,94,-1,94,51,90,-1,95,81,96,-1,96,81,82,-1,96,82,97,-1,97,82,83,-1,97,83,98,-1,98,83,80,-1,98,80,99,-1,99,80,79,-1,99,79,100,-1,100,79,78,-1,100,78,101,-1,101,78,74,-1,101,74,102,-1,102,74,73,-1,102,73,103,-1,103,73,77,-1,103,77,104,-1,104,77,76,-1,105,91,106,-1,106,91,93,-1,106,93,107,-1,107,93,94,-1,107,94,108,-1,108,94,90,-1,108,90,109,-1,109,90,89,-1,109,89,110,-1,110,89,88,-1,110,88,111,-1,111,88,85,-1,111,85,112,-1,112,85,84,-1,112,84,113,-1,113,84,87,-1,113,87,114,-1,114,87,86,-1,42,115,116,-1,75,40,117,-1,117,40,42,-1,118,119,120,-1,42,116,117,-1,117,116,121,-1,117,121,118,-1,118,121,122,-1,118,122,119,-1,51,92,57,-1,57,92,118,-1,57,118,123,-1,123,118,120,-1,55,124,125,-1,126,34,127,-1,127,34,36,-1,127,36,128,-1,128,36,38,-1,128,38,129,-1,129,38,58,-1,129,58,130,-1,130,58,63,-1,130,63,131,-1,131,63,0,-1,131,0,132,-1,124,55,133,-1,133,55,20,-1,133,20,134,-1,134,20,22,-1,134,22,135,-1,135,22,24,-1,135,24,136,-1,136,24,26,-1,136,26,137,-1,137,26,28,-1,137,28,138,-1,138,28,30,-1,138,30,126,-1,126,30,32,-1,126,32,34,-1,104,117,139,-1,139,117,118,-1,139,118,140,-1,140,118,105,-1,140,105,141,-1,132,0,142,-1,142,0,2,-1,142,2,143,-1,2,4,143,-1,143,4,6,-1,143,6,144,-1,144,6,8,-1,144,8,145,-1,145,8,10,-1,145,10,146,-1,146,10,12,-1,146,12,147,-1,147,12,14,-1,147,14,148,-1,148,14,16,-1,148,16,149,-1,149,16,18,-1,149,18,150,-1,150,18,46,-1,150,46,151,-1,151,46,43,-1,151,43,152,-1,152,43,95,-1,152,95,153,-1,153,95,96,-1,153,96,154,-1,154,96,97,-1,154,97,155,-1,155,97,98,-1,155,98,156,-1,156,98,99,-1,156,99,157,-1,157,99,100,-1,157,100,158,-1,141,105,159,-1,159,105,106,-1,159,106,160,-1,139,161,104,-1,104,161,162,-1,104,162,103,-1,103,162,163,-1,103,163,102,-1,102,163,158,-1,102,158,101,-1,101,158,100,-1,106,107,160,-1,160,107,108,-1,160,108,164,-1,164,108,109,-1,164,109,165,-1,165,109,110,-1,165,110,166,-1,166,110,111,-1,166,111,167,-1,167,111,112,-1,167,112,168,-1,168,112,113,-1,168,113,169,-1,169,113,114,-1,169,114,125,-1,125,114,49,-1,125,49,55,-1,118,92,105,-1,105,92,91,-1,104,76,117,-1,117,76,75,-1,50,49,86,-1,86,49,114,-1,43,41,95,-1,95,41,81,-1,1,65,3,-1,3,65,66,-1,3,66,5,-1,5,66,7,-1,44,19,45,-1,45,19,17,-1,45,17,15,-1,15,13,45,-1,45,13,11,-1,45,11,66,-1,66,11,9,-1,66,9,7,-1,67,39,68,-1,68,39,37,-1,68,37,35,-1,35,33,68,-1,68,33,31,-1,68,31,52,-1,52,31,29,-1,52,29,27,-1,21,53,23,-1,23,53,52,-1,23,52,25,-1,25,52,27,-1,
        ]
    }
}
Shape{
    appearance Appearance {
        material  Material 	{
            diffuseColor 1.0 1.0 1.0
            specularColor 0.5019607843137255 0.5019607843137255 0.5019607843137255
            ambientIntensity 1.0
            transparency 0.0
            shininess 0.5
        }
    }
    geometry IndexedFaceSet {
        ccw TRUE
        solid FALSE
        coord DEF co Coordinate {
            point [
                1.1932 0.3344 0.4294, 1.1867 0.36 0.4294, 1.1643 0.3532 0.4503, 1.0583 0.6436 0.4294, 1.0311 0.689 0.4294, 1.0116 0.676 0.4503, 0.5703 1.1005 0.4294, 0.4746 1.1458 0.4294, 0.4656 1.1241 0.4503, -0.2522 1.2138 0.4294, -0.36 1.1868 0.4294, -0.3532 1.1643 0.4503, -0.4148 1.1672 0.4294, -0.4746 1.1458 0.4294, -0.4656 1.1241 0.4503, -0.9618 0.7825 0.4294, -1.0312 0.689 0.4294, -1.0116 0.676 0.4503, -1.1367 -0.4937 0.4294, -1.0937 -0.5846 0.4294, -1.073 -0.5735 0.4503, -0.5703 -1.1005 0.4294, -0.4746 -1.1457 0.4294, -0.4656 -1.1241 0.4503, 0.2522 -1.2137 0.4294, 0.36 -1.1867 0.4294, 0.3532 -1.1643 0.4503, 0.4148 -1.1671 0.4294, 0.4746 -1.1457 0.4294, 0.4656 -1.1241 0.4503, 0.9618 -0.7825 0.4294, 1.0311 -0.689 0.4294, 1.0116 -0.6759 0.4503, 1.1932 -0.3343 0.4294, 1.2163 -0.2419 0.4294, 1.1933 -0.2374 0.4503, 0.4656 1.1241 0.6236, 0.5735 1.073 0.6236, 0.5651 1.0573 0.5976, 1.2272 0.1687 0.6445, 1.2342 0.1216 0.6445, 1.2108 0.1193 0.6236, 1.1932 0.3344 0.6445, 1.2163 0.242 0.6445, 1.1933 0.2374 0.6236, 1.1367 0.4937 0.6445, 1.1457 0.4746 0.6445, 1.1241 0.4656 0.6236, 1.0583 0.6436 0.6445, 1.0937 0.5846 0.6445, 1.073 0.5736 0.6236, 0.8456 0.9054 0.6445, 0.8769 0.8769 0.6445, 0.8603 0.8603 0.6236, 0.2522 1.2138 0.6445, 0.36 1.1868 0.6445, 0.3532 1.1643 0.6236, 0.1215 1.2342 0.6445, 0.2419 1.2163 0.6445, 0.2374 1.1933 0.6236, -0.242 1.2163 0.6445, -0.1216 1.2342 0.6445, -0.1193 1.2108 0.6236, -0.4148 1.1672 0.6445, -0.36 1.1868 0.6445, -0.3532 1.1643 0.6236, -0.689 1.0312 0.6445, -0.5846 1.0937 0.6445, -0.5736 1.073 0.6236, -0.9587 0.7868 0.6445, -0.8769 0.8769 0.6445, -0.8603 0.8603 0.6236, -1.0584 0.6436 0.6445, -1.0312 0.689 0.6445, -1.0116 0.676 0.6236, -1.1868 0.36 0.6445, -1.1458 0.4746 0.6445, -1.1241 0.4656 0.6236, -1.2402 0.0 0.6445, -1.2342 0.1216 0.6445, -1.2108 0.1193 0.6236, -1.1458 -0.4746 0.6445, -1.1868 -0.36 0.6445, -1.1643 -0.3532 0.6236, -0.9618 -0.7825 0.6445, -1.0312 -0.689 0.6445, -1.0116 -0.6759 0.6236, -0.8769 -0.8769 0.6445, -0.9587 -0.7867 0.6445, -0.9405 -0.7718 0.6236, -0.5846 -1.0937 0.6445, -0.689 -1.0311 0.6445, -0.676 -1.0116 0.6236, -0.4148 -1.1671 0.6445, -0.4746 -1.1457 0.6445, -0.4656 -1.1241 0.6236, -0.2522 -1.2137 0.6445, -0.36 -1.1867 0.6445, -0.3532 -1.1643 0.6236, -0.1216 -1.2342 0.6445, -0.242 -1.2163 0.6445, -0.2374 -1.1933 0.6236, 0.2419 -1.2163 0.6445, 0.1215 -1.2342 0.6445, 0.1192 -1.2108 0.6236, 0.4148 -1.1671 0.6445, 0.36 -1.1867 0.6445, 0.3532 -1.1643 0.6236, 0.689 -1.0311 0.6445, 0.5846 -1.0937 0.6445, 0.5735 -1.073 0.6236, 0.9586 -0.7867 0.6445, 0.8769 -0.8769 0.6445, 0.8603 -0.8603 0.6236, 1.0583 -0.6436 0.6445, 1.0311 -0.689 0.6445, 1.0116 -0.6759 0.6236, 1.1867 -0.36 0.6445, 1.1457 -0.4746 0.6445, 1.1241 -0.4656 0.6236, 1.2401 0.0 0.6445, 1.2342 -0.1215 0.6445, 1.2108 -0.1192 0.6236, 1.2163 -0.2419 0.6445, 1.1932 -0.3343 0.6445, 1.1643 -0.3532 0.6236, 1.0937 -0.5846 0.6445, 0.7867 -0.9586 0.6445, 0.7145 -1.0122 0.6445, 0.6759 -1.0116 0.6236, 0.4746 -1.1457 0.6445, -0.0 -1.2401 0.6445, -0.0846 -1.236 0.6445, -0.1193 -1.2108 0.6236, -0.7868 -0.9586 0.6445, -0.8456 -0.9053 0.6445, -0.8603 -0.8603 0.6236, -1.0937 -0.5846 0.6445, -1.1367 -0.4937 0.6445, -1.1241 -0.4656 0.6236, -1.2163 -0.2419 0.6445, -1.2272 -0.1686 0.6445, -1.2108 -0.1192 0.6236, -1.2163 0.242 0.6445, -1.1932 0.3344 0.6445, -1.1643 0.3532 0.6236, -1.0937 0.5846 0.6445, -0.7868 0.9587 0.6445, -0.7145 1.0123 0.6445, -0.676 1.0116 0.6236, -0.4746 1.1458 0.6445, -0.0 1.2402 0.6445, 0.0846 1.236 0.6445, 0.1192 1.2108 0.6236, 0.5846 1.0937 0.6445, 0.5703 1.1005 0.6445, 0.4746 1.1458 0.6445, 0.4148 1.1672 0.6445, 0.6759 1.0116 0.6236, 0.689 1.0312 0.6445, 0.7145 1.0123 0.6445, 0.9405 0.7719 0.6236, 0.9586 0.7868 0.6445, 0.9618 0.7825 0.6445, 1.0116 0.676 0.6236, 1.0311 0.689 0.6445, 1.1867 0.36 0.6445, 1.1643 0.3532 0.6236, 0.6599 0.9876 0.5682, 0.6661 0.9968 0.5976, 1.1367 -0.4937 0.6445, 1.073 -0.5735 0.6236, 1.0573 -0.5651 0.5976, 0.9968 -0.6661 0.5976, 0.9876 -0.6599 0.5682, 0.9181 -0.7535 0.5682, 0.9152 -0.7511 0.5369, 0.5703 -1.1005 0.6445, 0.4656 -1.1241 0.6236, 0.4588 -1.1076 0.5976, 0.348 -1.1472 0.5976, 0.3448 -1.1366 0.5682, 0.2317 -1.1649 0.5682, 0.231 -1.1612 0.5369, -0.348 -1.1472 0.5976, -0.4588 -1.1076 0.5976, -0.4545 -1.0973 0.5682, -0.5599 -1.0475 0.5682, -0.5581 -1.0442 0.5369, -1.1367 0.4937 0.6445, -1.073 0.5736 0.6236, -1.0573 0.5652 0.5976, -0.9968 0.6661 0.5976, -0.9876 0.6599 0.5682, -0.9182 0.7535 0.5682, -0.9152 0.7511 0.5369, -0.5703 1.1005 0.6445, -0.4656 1.1241 0.6236, -0.4588 1.1076 0.5976, -0.348 1.1473 0.5976, -0.3448 1.1366 0.5682, -0.2317 1.165 0.5682, -0.231 1.1613 0.5369, 0.348 1.1473 0.5976, 0.4588 1.1076 0.5976, 0.4545 1.0974 0.5682, 0.5599 1.0475 0.5682, 0.5581 1.0442 0.5369, 0.7511 0.9152 0.5369, 0.7535 0.9182 0.5682, 0.7606 0.9268 0.5976, 0.7718 0.9405 0.6236, 0.7867 0.9587 0.6445, 1.1076 -0.4588 0.5976, 1.0475 -0.5599 0.5682, 0.9844 -0.6578 0.5369, 0.9181 -0.7535 0.5057, 0.5651 -1.0573 0.5976, 0.4545 -1.0973 0.5682, 0.3437 -1.133 0.5369, 0.2317 -1.1649 0.5057, -0.2339 -1.1758 0.5976, -0.3448 -1.1366 0.5682, -0.4531 -1.0939 0.5369, -0.5599 -1.0475 0.5057, -1.1076 0.4588 0.5976, -1.0475 0.5599 0.5682, -0.9845 0.6578 0.5369, -0.9182 0.7535 0.5057, -0.5652 1.0573 0.5976, -0.4545 1.0974 0.5682, -0.3437 1.133 0.5369, -0.2317 1.165 0.5057, 0.2339 1.1759 0.5976, 0.3448 1.1366 0.5682, 0.4531 1.0939 0.5369, 0.5599 1.0475 0.5057, 0.8399 0.8399 0.5057, 0.8372 0.8372 0.5369, 0.8399 0.8399 0.5682, 0.8477 0.8477 0.5976, 1.182 -0.1164 0.5057, 1.1878 0.0 0.5057, 1.184 0.0 0.5369, 1.2272 -0.1686 0.6445, 1.1933 -0.2374 0.6236, 1.1472 -0.348 0.5976, 1.0973 -0.4545 0.5682, 1.0442 -0.5581 0.5369, 0.9876 -0.6599 0.5057, 0.9267 -0.7606 0.4763, 0.8456 -0.9053 0.6445, 0.7718 -0.9405 0.6236, 0.6661 -0.9968 0.5976, 0.5599 -1.0475 0.5682, 0.4531 -1.0939 0.5369, 0.3448 -1.1366 0.5057, 0.2339 -1.1758 0.4763, 0.0846 -1.236 0.6445, -0.0 -1.2167 0.6236, -0.1175 -1.1931 0.5976, -0.2317 -1.1649 0.5682, -0.3437 -1.133 0.5369, -0.4545 -1.0973 0.5057, -0.5652 -1.0573 0.4763, -1.2272 0.1687 0.6445, -1.1933 0.2374 0.6236, -1.1473 0.348 0.5976, -1.0974 0.4545 0.5682, -1.0442 0.5581 0.5369, -0.9876 0.6599 0.5057, -0.9268 0.7606 0.4763, -0.8456 0.9054 0.6445, -0.7719 0.9405 0.6236, -0.6661 0.9968 0.5976, -0.5599 1.0475 0.5682, -0.4531 1.0939 0.5369, -0.3448 1.1366 0.5057, -0.2339 1.1759 0.4763, -0.0846 1.236 0.6445, -0.0 1.2167 0.6236, 0.1175 1.1931 0.5976, 0.2317 1.165 0.5682, 0.3437 1.133 0.5369, 0.4545 1.0974 0.5057, 0.5651 1.0573 0.4763, 0.9267 0.7606 0.4763, 0.9181 0.7535 0.5057, 0.9152 0.7511 0.5369, 0.9181 0.7535 0.5682, 0.9267 0.7606 0.5976, 1.1758 -0.2339 0.5976, 1.1366 -0.3448 0.5682, 1.0939 -0.4531 0.5369, 1.0475 -0.5599 0.5057, 0.9968 -0.6661 0.4763, 0.9405 -0.7718 0.4503, 0.7606 -0.9267 0.4763, 0.8477 -0.8477 0.4763, 0.8399 -0.8399 0.5057, 0.7606 -0.9267 0.5976, 0.6599 -0.9876 0.5682, 0.5581 -1.0442 0.5369, 0.4545 -1.0973 0.5057, 0.348 -1.1472 0.4763, 0.2374 -1.1933 0.4503, -0.0 -1.1989 0.4763, 0.1175 -1.1931 0.4763, 0.1164 -1.182 0.5057, -0.0 -1.1989 0.5976, -0.1164 -1.182 0.5682, -0.231 -1.1612 0.5369, -0.3448 -1.1366 0.5057, -0.4588 -1.1076 0.4763, -0.5736 -1.073 0.4503, -0.7606 -0.9267 0.4763, -0.6661 -0.9968 0.4763, -0.6599 -0.9876 0.5057, -1.1759 0.2339 0.5976, -1.1366 0.3448 0.5682, -1.0939 0.4531 0.5369, -1.0475 0.5599 0.5057, -0.9968 0.6661 0.4763, -0.9405 0.7719 0.4503, -0.7606 0.9268 0.4763, -0.8477 0.8477 0.4763, -0.8399 0.8399 0.5057, -0.7606 0.9268 0.5976, -0.6599 0.9876 0.5682, -0.5581 1.0442 0.5369, -0.4545 1.0974 0.5057, -0.348 1.1473 0.4763, -0.2374 1.1933 0.4503, -0.0 1.1989 0.4763, -0.1175 1.1931 0.4763, -0.1164 1.1821 0.5057, -0.0 1.1989 0.5976, 0.1164 1.1821 0.5682, 0.231 1.1613 0.5369, 0.3448 1.1366 0.5057, 0.4588 1.1076 0.4763, 0.5735 1.073 0.4503, 0.7606 0.9268 0.4763, 0.6661 0.9968 0.4763, 0.6599 0.9876 0.5057, 0.9968 0.6661 0.4763, 0.9876 0.6599 0.5057, 0.9844 0.6578 0.5369, 0.9876 0.6599 0.5682, 0.9968 0.6661 0.5976, 1.2108 -0.1192 0.4503, 1.1931 -0.1175 0.4763, 1.1241 -0.4656 0.4503, 1.1643 -0.3532 0.4503, 1.1472 -0.348 0.4763, 1.1758 -0.2339 0.4763, 1.1649 -0.2317 0.5057, 1.1783 -0.116 0.5369, 1.1878 0.0 0.5682, 0.8603 -0.8603 0.4503, 0.7718 -0.9405 0.4503, 0.6759 -1.0116 0.4503, 0.5703 -1.1005 0.4294, 0.5846 -1.0937 0.4294, 0.5735 -1.073 0.4503, 0.6661 -0.9968 0.4763, 0.7535 -0.9181 0.5057, 0.8372 -0.8372 0.5369, 0.1192 -1.2108 0.4503, -0.0 -1.2167 0.4503, -0.1193 -1.2108 0.4503, -0.2522 -1.2137 0.4294, -0.242 -1.2163 0.4294, -0.2374 -1.1933 0.4503, -0.1175 -1.1931 0.4763, -0.0 -1.1878 0.5057, 0.116 -1.1783 0.5369, 0.2522 -1.2137 0.6445, 0.2374 -1.1933 0.6236, 0.2339 -1.1758 0.5976, 0.1175 -1.1931 0.5976, 0.1164 -1.182 0.5682, -0.0 -1.1878 0.5682, -0.0 -1.184 0.5369, -0.1161 -1.1783 0.5369, -0.1164 -1.182 0.5057, -0.2317 -1.1649 0.5057, -0.2339 -1.1758 0.4763, -0.348 -1.1472 0.4763, -0.3532 -1.1643 0.4503, -0.676 -1.0116 0.4503, -0.7719 -0.9405 0.4503, -0.8603 -0.8603 0.4503, -0.9618 -0.7825 0.4294, -0.9587 -0.7867 0.4294, -0.9405 -0.7718 0.4503, -0.8477 -0.8477 0.4763, -0.7535 -0.9181 0.5057, -0.6578 -0.9844 0.5369, -0.5703 -1.1005 0.6445, -0.5736 -1.073 0.6236, -0.5652 -1.0573 0.5976, -0.6661 -0.9968 0.5976, -0.6599 -0.9876 0.5682, -0.7535 -0.9181 0.5682, -0.7511 -0.9152 0.5369, -0.8372 -0.8372 0.5369, -0.8399 -0.8399 0.5057, -0.9182 -0.7535 0.5057, -0.9268 -0.7606 0.4763, -0.9968 -0.6661 0.4763, -1.0116 -0.6759 0.4503, -0.7145 -1.0122 0.6445, -0.7719 -0.9405 0.6236, -0.7606 -0.9267 0.5976, -0.8477 -0.8477 0.5976, -0.8399 -0.8399 0.5682, -0.9182 -0.7535 0.5682, -0.9152 -0.7511 0.5369, -0.9845 -0.6578 0.5369, -0.9876 -0.6599 0.5057, -1.0475 -0.5599 0.5057, -1.0573 -0.5651 0.4763, -1.1076 -0.4588 0.4763, -1.1241 -0.4656 0.4503, -1.1643 -0.3532 0.4503, -0.9968 -0.6661 0.5976, -1.0573 -0.5651 0.5976, -1.0475 -0.5599 0.5682, -1.0974 -0.4545 0.5682, -1.0939 -0.4531 0.5369, -1.133 -0.3437 0.5369, -1.1366 -0.3448 0.5057, -1.165 -0.2317 0.5057, -1.1759 -0.2339 0.4763, -1.1931 -0.1175 0.4763, -1.2108 -0.1192 0.4503, -1.2167 0.0 0.4503, -1.0584 -0.6436 0.6445, -1.073 -0.5735 0.6236, -1.1076 -0.4588 0.5976, -1.1366 -0.3448 0.5682, -1.1613 -0.231 0.5369, -1.1821 -0.1164 0.5057, -1.1989 0.0 0.4763, -1.2108 0.1193 0.4503, -1.1932 -0.3343 0.6445, -1.1933 -0.2374 0.6236, -1.1759 -0.2339 0.5976, -1.1931 -0.1175 0.5976, -1.1821 -0.1164 0.5682, -1.1878 0.0 0.5682, -1.184 0.0 0.5369, -1.1783 0.1161 0.5369, -1.1821 0.1164 0.5057, -1.165 0.2317 0.5057, -1.1759 0.2339 0.4763, -1.1473 0.348 0.4763, -1.1643 0.3532 0.4503, -1.1241 0.4656 0.4503, -0.8603 0.8603 0.4503, -0.7719 0.9405 0.4503, -0.676 1.0116 0.4503, -0.5703 1.1005 0.4294, -0.5846 1.0937 0.4294, -0.5736 1.073 0.4503, -0.6661 0.9968 0.4763, -0.7535 0.9182 0.5057, -0.8372 0.8372 0.5369, -0.1193 1.2108 0.4503, -0.0 1.2167 0.4503, 0.1192 1.2108 0.4503, 0.2522 1.2138 0.4294, 0.2419 1.2163 0.4294, 0.2374 1.1933 0.4503, 0.1175 1.1931 0.4763, -0.0 1.1878 0.5057, -0.1161 1.1783 0.5369, -0.2522 1.2138 0.6445, -0.2374 1.1933 0.6236, -0.2339 1.1759 0.5976, -0.1175 1.1931 0.5976, -0.1164 1.1821 0.5682, -0.0 1.1878 0.5682, -0.0 1.184 0.5369, 0.116 1.1783 0.5369, 0.1164 1.1821 0.5057, 0.2317 1.165 0.5057, 0.2339 1.1759 0.4763, 0.348 1.1473 0.4763, 0.3532 1.1643 0.4503, 0.6759 1.0116 0.4503, 0.7718 0.9405 0.4503, 0.8603 0.8603 0.4503, 0.9618 0.7825 0.4294, 0.9586 0.7868 0.4294, 0.9405 0.7719 0.4503, 0.8477 0.8477 0.4763, 0.7535 0.9182 0.5057, 0.6578 0.9845 0.5369, 1.1989 0.0 0.4763, 1.2167 0.0 0.4503, 1.2342 -0.1215 0.4294, 1.2401 0.0 0.4294, 1.2272 -0.1686 0.4294, 1.0583 -0.6436 0.4294, 1.0937 -0.5846 0.4294, 1.073 -0.5735 0.4503, 1.1076 -0.4588 0.4763, 1.1366 -0.3448 0.5057, 1.1612 -0.231 0.5369, 1.182 -0.1164 0.5682, 1.1989 0.0 0.5976, 1.1367 -0.4937 0.4294, 1.1457 -0.4746 0.4294, 1.1867 -0.36 0.4294, 1.0573 -0.5651 0.4763, 1.0973 -0.4545 0.5057, 1.133 -0.3437 0.5369, 1.1649 -0.2317 0.5682, 1.1931 -0.1175 0.5976, 1.2167 0.0 0.6236, 0.9586 -0.7867 0.4294, 0.8769 -0.8769 0.4294, 0.689 -1.0311 0.4294, 0.7145 -1.0122 0.4294, 0.7867 -0.9586 0.4294, 0.8456 -0.9053 0.4294, 0.5651 -1.0573 0.4763, 0.6599 -0.9876 0.5057, 0.7511 -0.9152 0.5369, 0.8399 -0.8399 0.5682, 0.9267 -0.7606 0.5976, 0.4588 -1.1076 0.4763, 0.5599 -1.0475 0.5057, 0.6578 -0.9844 0.5369, 0.7535 -0.9181 0.5682, 0.8477 -0.8477 0.5976, 0.9405 -0.7718 0.6236, 0.9618 -0.7825 0.6445, 0.2419 -1.2163 0.4294, 0.1215 -1.2342 0.4294, -0.1216 -1.2342 0.4294, -0.0846 -1.236 0.4294, -0.0 -1.2401 0.4294, 0.0846 -1.236 0.4294, -0.36 -1.1867 0.4294, -0.4148 -1.1671 0.4294, -0.5846 -1.0937 0.4294, -0.689 -1.0311 0.4294, -0.8769 -0.8769 0.4294, -0.8456 -0.9053 0.4294, -0.7868 -0.9586 0.4294, -0.7145 -1.0122 0.4294, -1.0312 -0.689 0.4294, -1.0584 -0.6436 0.4294, -1.2272 -0.1686 0.4294, -1.2163 -0.2419 0.4294, -1.1933 -0.2374 0.4503, -1.1473 -0.348 0.4763, -1.0974 -0.4545 0.5057, -1.0442 -0.5581 0.5369, -0.9876 -0.6599 0.5682, -0.9268 -0.7606 0.5976, -1.1932 -0.3343 0.4294, -1.1868 -0.36 0.4294, -1.1458 -0.4746 0.4294, -1.1932 0.3344 0.4294, -1.2163 0.242 0.4294, -1.1933 0.2374 0.4503, -1.1931 0.1175 0.4763, -1.1878 0.0 0.5057, -1.1783 -0.116 0.5369, -1.165 -0.2317 0.5682, -1.1473 -0.348 0.5976, -1.2272 0.1687 0.4294, -1.2342 0.1216 0.4294, -1.2402 0.0 0.4294, -1.2342 -0.1215 0.4294, -1.0584 0.6436 0.4294, -1.0937 0.5846 0.4294, -1.073 0.5736 0.4503, -1.1076 0.4588 0.4763, -1.1366 0.3448 0.5057, -1.1613 0.231 0.5369, -1.1821 0.1164 0.5682, -1.1989 0.0 0.5976, -1.1367 0.4937 0.4294, -1.1458 0.4746 0.4294, -1.1868 0.36 0.4294, -1.0573 0.5652 0.4763, -1.0974 0.4545 0.5057, -1.133 0.3437 0.5369, -1.165 0.2317 0.5682, -1.1931 0.1175 0.5976, -1.2167 0.0 0.6236, -1.2342 -0.1215 0.6445, -0.9587 0.7868 0.4294, -0.8769 0.8769 0.4294, -0.689 1.0312 0.4294, -0.7145 1.0123 0.4294, -0.7868 0.9587 0.4294, -0.8456 0.9054 0.4294, -0.5652 1.0573 0.4763, -0.6599 0.9876 0.5057, -0.7511 0.9152 0.5369, -0.8399 0.8399 0.5682, -0.9268 0.7606 0.5976, -0.4588 1.1076 0.4763, -0.5599 1.0475 0.5057, -0.6578 0.9845 0.5369, -0.7535 0.9182 0.5682, -0.8477 0.8477 0.5976, -0.9405 0.7719 0.6236, -0.9618 0.7825 0.6445, -0.242 1.2163 0.4294, -0.1216 1.2342 0.4294, 0.1215 1.2342 0.4294, 0.0846 1.236 0.4294, -0.0 1.2402 0.4294, -0.0846 1.236 0.4294, 0.36 1.1868 0.4294, 0.4148 1.1672 0.4294, 0.5846 1.0937 0.4294, 0.689 1.0312 0.4294, 0.8769 0.8769 0.4294, 0.8456 0.9054 0.4294, 0.7867 0.9587 0.4294, 0.7145 1.0123 0.4294, 1.0573 0.5652 0.5976, 1.0475 0.5599 0.5682, 1.0442 0.5581 0.5369, 1.0475 0.5599 0.5057, 1.0573 0.5652 0.4763, 1.073 0.5736 0.4503, 1.0937 0.5846 0.4294, 1.1241 0.4656 0.4503, 1.1457 0.4746 0.4294, 1.1367 0.4937 0.4294, 1.1076 0.4588 0.5976, 1.0973 0.4545 0.5682, 1.0939 0.4531 0.5369, 1.0973 0.4545 0.5057, 1.1076 0.4588 0.4763, 1.1472 0.348 0.5976, 1.1366 0.3448 0.5682, 1.133 0.3437 0.5369, 1.1366 0.3448 0.5057, 1.1472 0.348 0.4763, 1.1758 0.2339 0.5976, 1.1649 0.2317 0.5682, 1.1612 0.231 0.5369, 1.1649 0.2317 0.5057, 1.1758 0.2339 0.4763, 1.1933 0.2374 0.4503, 1.2163 0.242 0.4294, 1.2108 0.1193 0.4503, 1.2342 0.1216 0.4294, 1.2272 0.1687 0.4294, 1.1931 0.1175 0.5976, 1.182 0.1164 0.5682, 1.1783 0.1161 0.5369, 1.182 0.1164 0.5057, 1.1931 0.1175 0.4763, -0.5852 1.0486 3.0394, -0.5852 -1.0485 3.0394, -0.5661 1.059 3.0394, -0.5661 -1.059 3.0394, 0.6671 0.9984 3.0394, 0.566 1.059 3.0394, 0.4595 1.1094 3.0394, -0.3486 -1.1491 3.0394, -0.2343 -1.1777 3.0394, 1.1777 -0.2343 3.0394, -0.4595 -1.1094 3.0394, 0.3486 1.1491 3.0394, 0.2343 1.1777 3.0394, 0.1177 1.195 3.0394, -0.0 1.2008 3.0394, -0.1177 1.195 3.0394, -0.2343 1.1777 3.0394, -0.1177 -1.195 3.0394, -0.0 -1.2008 3.0394, 0.1177 -1.195 3.0394, 0.8491 -0.8491 3.0394, 0.9282 -0.7618 3.0394, 0.9984 -0.6671 3.0394, 1.059 -0.566 3.0394, 1.1491 0.3486 3.0394, 1.1094 0.4595 3.0394, 0.9282 0.7618 3.0394, 0.8491 0.8491 3.0394, 0.7618 0.9282 3.0394, -0.3486 1.1491 3.0394, -0.4595 1.1094 3.0394, 0.2343 -1.1777 3.0394, 0.3486 -1.1491 3.0394, 0.4595 -1.1094 3.0394, 0.566 -1.059 3.0394, 0.6671 -0.9984 3.0394, 0.7618 -0.9282 3.0394, 1.059 0.5661 3.0394, 0.9984 0.6671 3.0394, 1.1094 -0.4595 3.0394, 1.1491 -0.3486 3.0394, 1.195 -0.1177 3.0394, 1.2008 0.0 3.0394, 1.195 0.1177 3.0394, 1.1777 0.2343 3.0394, -1.2342 0.1216 3.0, -1.2402 0.0 3.0, -1.2342 -0.1215 3.0, -1.2272 -0.1686 3.0, -1.2163 -0.2419 3.0, -1.1932 -0.3343 3.0, -1.1868 -0.36 3.0, -1.1458 -0.4746 3.0, -1.1367 -0.4937 3.0, -1.0937 -0.5846 3.0, -1.0584 -0.6436 3.0, -1.0312 -0.689 3.0, -0.9618 -0.7825 3.0, -0.9587 -0.7867 3.0, -0.8769 -0.8769 3.0, -0.8456 -0.9053 3.0, -0.7868 -0.9586 3.0, -0.7145 -1.0122 3.0, -0.689 -1.0311 3.0, -0.5846 -1.0937 3.0, -0.5703 -1.1005 3.0, -0.4746 -1.1457 3.0, -0.4148 -1.1671 3.0, -0.36 -1.1867 3.0, -0.2522 -1.2137 3.0, -0.242 -1.2163 3.0, -0.1216 -1.2342 3.0, -0.0846 -1.236 3.0, -0.0 -1.2401 3.0, 0.0846 -1.236 3.0, 0.1215 -1.2342 3.0, 0.2419 -1.2163 3.0, 0.2522 -1.2137 3.0, 0.36 -1.1867 3.0, 0.4148 -1.1671 3.0, 0.4746 -1.1457 3.0, 0.5703 -1.1005 3.0, 0.5846 -1.0937 3.0, 0.689 -1.0311 3.0, 0.7145 -1.0122 3.0, 0.7867 -0.9586 3.0, 0.8456 -0.9053 3.0, 0.8769 -0.8769 3.0, 0.9586 -0.7867 3.0, 0.9618 -0.7825 3.0, 1.0311 -0.689 3.0, 1.0583 -0.6436 3.0, 1.0937 -0.5846 3.0, 1.1367 -0.4937 3.0, 1.1457 -0.4746 3.0, 1.1867 -0.36 3.0, 1.1932 -0.3343 3.0, 1.2163 -0.2419 3.0, 1.2272 -0.1686 3.0, 1.2342 -0.1215 3.0, 1.2401 0.0 3.0, 1.2342 0.1216 3.0, 1.2272 0.1687 3.0, 1.2163 0.242 3.0, 1.1932 0.3344 3.0, 1.1867 0.36 3.0, 1.1457 0.4746 3.0, 1.1367 0.4937 3.0, 1.0937 0.5846 3.0, 1.0583 0.6436 3.0, 1.0311 0.689 3.0, 0.9618 0.7825 3.0, 0.9586 0.7868 3.0, 0.8769 0.8769 3.0, 0.8456 0.9054 3.0, 0.7867 0.9587 3.0, 0.7145 1.0123 3.0, 0.689 1.0312 3.0, 0.5846 1.0937 3.0, 0.5703 1.1005 3.0, 0.4746 1.1458 3.0, 0.4148 1.1672 3.0, 0.36 1.1868 3.0, 0.2522 1.2138 3.0, 0.2419 1.2163 3.0, 0.1215 1.2342 3.0, 0.0846 1.236 3.0, -0.0 1.2402 3.0, -0.0846 1.236 3.0, -0.1216 1.2342 3.0, -0.242 1.2163 3.0, -0.2522 1.2138 3.0, -0.36 1.1868 3.0, -0.4148 1.1672 3.0, -0.4746 1.1458 3.0, -0.5703 1.1005 3.0, -0.5846 1.0937 3.0, -0.689 1.0312 3.0, -0.7145 1.0123 3.0, -0.7868 0.9587 3.0, -0.8456 0.9054 3.0, -0.8769 0.8769 3.0, -0.9587 0.7868 3.0, -0.9618 0.7825 3.0, -1.0312 0.689 3.0, -1.0584 0.6436 3.0, -1.0937 0.5846 3.0, -1.1367 0.4937 3.0, -1.1458 0.4746 3.0, -1.1868 0.36 3.0, -1.1932 0.3344 3.0, -1.2163 0.242 3.0, -1.2272 0.1687 3.0
            ]
        }
        coordIndex [
            0,1,2,-1,3,4,5,-1,6,7,8,-1,9,10,11,-1,12,13,14,-1,15,16,17,-1,18,19,20,-1,21,22,23,-1,24,25,26,-1,27,28,29,-1,30,31,32,-1,33,34,35,-1,36,37,38,-1,39,40,41,-1,42,43,44,-1,45,46,47,-1,48,49,50,-1,51,52,53,-1,54,55,56,-1,57,58,59,-1,60,61,62,-1,63,64,65,-1,66,67,68,-1,69,70,71,-1,72,73,74,-1,75,76,77,-1,78,79,80,-1,81,82,83,-1,84,85,86,-1,87,88,89,-1,90,91,92,-1,93,94,95,-1,96,97,98,-1,99,100,101,-1,102,103,104,-1,105,106,107,-1,108,109,110,-1,111,112,113,-1,114,115,116,-1,117,118,119,-1,120,121,122,-1,123,124,125,-1,114,116,126,-1,127,128,129,-1,105,107,130,-1,131,132,133,-1,134,135,136,-1,137,138,139,-1,140,141,142,-1,143,144,145,-1,72,74,146,-1,147,148,149,-1,63,65,150,-1,151,152,153,-1,154,37,155,-1,155,37,36,-1,155,36,156,-1,156,36,157,-1,158,159,160,-1,161,162,163,-1,164,165,48,-1,45,47,49,-1,46,166,167,-1,167,166,42,-1,39,41,43,-1,168,38,169,-1,169,38,37,-1,169,37,158,-1,158,37,154,-1,158,154,159,-1,118,170,119,-1,119,170,171,-1,119,171,172,-1,172,171,173,-1,172,173,174,-1,174,173,175,-1,174,175,176,-1,109,177,110,-1,110,177,178,-1,110,178,179,-1,179,178,180,-1,179,180,181,-1,181,180,182,-1,181,182,183,-1,100,96,101,-1,101,96,98,-1,101,98,184,-1,184,98,185,-1,184,185,186,-1,186,185,187,-1,186,187,188,-1,76,189,77,-1,77,189,190,-1,77,190,191,-1,191,190,192,-1,191,192,193,-1,193,192,194,-1,193,194,195,-1,67,196,68,-1,68,196,197,-1,68,197,198,-1,198,197,199,-1,198,199,200,-1,200,199,201,-1,200,201,202,-1,58,54,59,-1,59,54,56,-1,59,56,203,-1,203,56,204,-1,203,204,205,-1,205,204,206,-1,205,206,207,-1,208,168,209,-1,209,168,169,-1,209,169,210,-1,210,169,158,-1,210,158,211,-1,211,158,160,-1,211,160,212,-1,124,117,125,-1,125,117,119,-1,125,119,213,-1,213,119,172,-1,213,172,214,-1,214,172,174,-1,214,174,215,-1,215,174,176,-1,215,176,216,-1,128,108,129,-1,129,108,110,-1,129,110,217,-1,217,110,179,-1,217,179,218,-1,218,179,181,-1,218,181,219,-1,219,181,183,-1,219,183,220,-1,132,99,133,-1,133,99,101,-1,133,101,221,-1,221,101,184,-1,221,184,222,-1,222,184,186,-1,222,186,223,-1,223,186,188,-1,223,188,224,-1,144,75,145,-1,145,75,77,-1,145,77,225,-1,225,77,191,-1,225,191,226,-1,226,191,193,-1,226,193,227,-1,227,193,195,-1,227,195,228,-1,148,66,149,-1,149,66,68,-1,149,68,229,-1,229,68,198,-1,229,198,230,-1,230,198,200,-1,230,200,231,-1,231,200,202,-1,231,202,232,-1,152,57,153,-1,153,57,59,-1,153,59,233,-1,233,59,203,-1,233,203,234,-1,234,203,205,-1,234,205,235,-1,235,205,207,-1,235,207,236,-1,237,208,238,-1,238,208,209,-1,238,209,239,-1,239,209,210,-1,239,210,240,-1,240,210,211,-1,240,211,53,-1,53,211,212,-1,53,212,51,-1,241,242,243,-1,244,123,245,-1,245,123,125,-1,245,125,246,-1,246,125,213,-1,246,213,247,-1,247,213,214,-1,247,214,248,-1,248,214,215,-1,248,215,249,-1,249,215,216,-1,249,216,250,-1,251,127,252,-1,252,127,129,-1,252,129,253,-1,253,129,217,-1,253,217,254,-1,254,217,218,-1,254,218,255,-1,255,218,219,-1,255,219,256,-1,256,219,220,-1,256,220,257,-1,258,131,259,-1,259,131,133,-1,259,133,260,-1,260,133,221,-1,260,221,261,-1,261,221,222,-1,261,222,262,-1,262,222,223,-1,262,223,263,-1,263,223,224,-1,263,224,264,-1,265,143,266,-1,266,143,145,-1,266,145,267,-1,267,145,225,-1,267,225,268,-1,268,225,226,-1,268,226,269,-1,269,226,227,-1,269,227,270,-1,270,227,228,-1,270,228,271,-1,272,147,273,-1,273,147,149,-1,273,149,274,-1,274,149,229,-1,274,229,275,-1,275,229,230,-1,275,230,276,-1,276,230,231,-1,276,231,277,-1,277,231,232,-1,277,232,278,-1,279,151,280,-1,280,151,153,-1,280,153,281,-1,281,153,233,-1,281,233,282,-1,282,233,234,-1,282,234,283,-1,283,234,235,-1,283,235,284,-1,284,235,236,-1,284,236,285,-1,286,237,287,-1,287,237,238,-1,287,238,288,-1,288,238,239,-1,288,239,289,-1,289,239,240,-1,289,240,290,-1,290,240,53,-1,290,53,161,-1,161,53,52,-1,161,52,162,-1,121,244,122,-1,122,244,245,-1,122,245,291,-1,291,245,246,-1,291,246,292,-1,292,246,247,-1,292,247,293,-1,293,247,248,-1,293,248,294,-1,294,248,249,-1,294,249,295,-1,295,249,250,-1,295,250,296,-1,297,298,299,-1,112,251,113,-1,113,251,252,-1,113,252,300,-1,300,252,253,-1,300,253,301,-1,301,253,254,-1,301,254,302,-1,302,254,255,-1,302,255,303,-1,303,255,256,-1,303,256,304,-1,304,256,257,-1,304,257,305,-1,306,307,308,-1,103,258,104,-1,104,258,259,-1,104,259,309,-1,309,259,260,-1,309,260,310,-1,310,260,261,-1,310,261,311,-1,311,261,262,-1,311,262,312,-1,312,262,263,-1,312,263,313,-1,313,263,264,-1,313,264,314,-1,315,316,317,-1,79,265,80,-1,80,265,266,-1,80,266,318,-1,318,266,267,-1,318,267,319,-1,319,267,268,-1,319,268,320,-1,320,268,269,-1,320,269,321,-1,321,269,270,-1,321,270,322,-1,322,270,271,-1,322,271,323,-1,324,325,326,-1,70,272,71,-1,71,272,273,-1,71,273,327,-1,327,273,274,-1,327,274,328,-1,328,274,275,-1,328,275,329,-1,329,275,276,-1,329,276,330,-1,330,276,277,-1,330,277,331,-1,331,277,278,-1,331,278,332,-1,333,334,335,-1,61,279,62,-1,62,279,280,-1,62,280,336,-1,336,280,281,-1,336,281,337,-1,337,281,282,-1,337,282,338,-1,338,282,283,-1,338,283,339,-1,339,283,284,-1,339,284,340,-1,340,284,285,-1,340,285,341,-1,342,343,344,-1,5,286,345,-1,345,286,287,-1,345,287,346,-1,346,287,288,-1,346,288,347,-1,347,288,289,-1,347,289,348,-1,348,289,290,-1,348,290,349,-1,349,290,161,-1,349,161,164,-1,164,161,163,-1,164,163,165,-1,35,350,351,-1,352,353,354,-1,354,353,355,-1,354,355,356,-1,356,355,241,-1,356,241,357,-1,357,241,243,-1,357,243,358,-1,359,298,360,-1,360,298,297,-1,360,297,361,-1,362,363,364,-1,364,363,361,-1,364,361,365,-1,365,361,297,-1,365,297,366,-1,366,297,299,-1,366,299,367,-1,368,307,369,-1,369,307,306,-1,369,306,370,-1,371,372,373,-1,373,372,370,-1,373,370,374,-1,374,370,306,-1,374,306,375,-1,375,306,308,-1,375,308,376,-1,106,377,107,-1,107,377,378,-1,107,378,379,-1,379,378,380,-1,379,380,381,-1,381,380,382,-1,381,382,383,-1,383,382,384,-1,383,384,385,-1,385,384,386,-1,385,386,387,-1,387,386,388,-1,387,388,389,-1,389,388,23,-1,390,316,391,-1,391,316,315,-1,391,315,392,-1,393,394,395,-1,395,394,392,-1,395,392,396,-1,396,392,315,-1,396,315,397,-1,397,315,317,-1,397,317,398,-1,94,399,95,-1,95,399,400,-1,95,400,401,-1,401,400,402,-1,401,402,403,-1,403,402,404,-1,403,404,405,-1,405,404,406,-1,405,406,407,-1,407,406,408,-1,407,408,409,-1,409,408,410,-1,409,410,411,-1,411,410,20,-1,91,412,92,-1,92,412,413,-1,92,413,414,-1,414,413,415,-1,414,415,416,-1,416,415,417,-1,416,417,418,-1,418,417,419,-1,418,419,420,-1,420,419,421,-1,420,421,422,-1,422,421,423,-1,422,423,424,-1,424,423,425,-1,88,84,89,-1,89,84,86,-1,89,86,426,-1,426,86,427,-1,426,427,428,-1,428,427,429,-1,428,429,430,-1,430,429,431,-1,430,431,432,-1,432,431,433,-1,432,433,434,-1,434,433,435,-1,434,435,436,-1,436,435,437,-1,85,438,86,-1,86,438,439,-1,86,439,427,-1,427,439,440,-1,427,440,429,-1,429,440,441,-1,429,441,431,-1,431,441,442,-1,431,442,433,-1,433,442,443,-1,433,443,435,-1,435,443,444,-1,435,444,437,-1,437,444,445,-1,82,446,83,-1,83,446,447,-1,83,447,448,-1,448,447,449,-1,448,449,450,-1,450,449,451,-1,450,451,452,-1,452,451,453,-1,452,453,454,-1,454,453,455,-1,454,455,456,-1,456,455,457,-1,456,457,458,-1,458,457,459,-1,460,325,461,-1,461,325,324,-1,461,324,462,-1,463,464,465,-1,465,464,462,-1,465,462,466,-1,466,462,324,-1,466,324,467,-1,467,324,326,-1,467,326,468,-1,469,334,470,-1,470,334,333,-1,470,333,471,-1,472,473,474,-1,474,473,471,-1,474,471,475,-1,475,471,333,-1,475,333,476,-1,476,333,335,-1,476,335,477,-1,64,478,65,-1,65,478,479,-1,65,479,480,-1,480,479,481,-1,480,481,482,-1,482,481,483,-1,482,483,484,-1,484,483,485,-1,484,485,486,-1,486,485,487,-1,486,487,488,-1,488,487,489,-1,488,489,490,-1,490,489,8,-1,491,343,492,-1,492,343,342,-1,492,342,493,-1,494,495,496,-1,496,495,493,-1,496,493,497,-1,497,493,342,-1,497,342,498,-1,498,342,344,-1,498,344,499,-1,242,351,500,-1,500,351,350,-1,500,350,501,-1,501,350,502,-1,501,502,503,-1,35,34,350,-1,350,34,504,-1,350,504,502,-1,242,241,351,-1,351,241,355,-1,351,355,35,-1,35,355,353,-1,35,353,33,-1,505,506,507,-1,507,506,352,-1,507,352,508,-1,508,352,354,-1,508,354,509,-1,509,354,356,-1,509,356,510,-1,510,356,357,-1,510,357,511,-1,511,357,358,-1,511,358,512,-1,506,513,352,-1,352,513,514,-1,352,514,353,-1,353,514,515,-1,353,515,33,-1,31,505,32,-1,32,505,507,-1,32,507,516,-1,516,507,508,-1,516,508,517,-1,517,508,509,-1,517,509,518,-1,518,509,510,-1,518,510,519,-1,519,510,511,-1,519,511,520,-1,520,511,512,-1,520,512,521,-1,522,30,296,-1,296,30,32,-1,296,32,295,-1,295,32,516,-1,295,516,294,-1,294,516,517,-1,294,517,293,-1,293,517,518,-1,293,518,292,-1,292,518,519,-1,292,519,291,-1,291,519,520,-1,291,520,122,-1,122,520,521,-1,122,521,120,-1,120,521,40,-1,175,367,176,-1,176,367,299,-1,176,299,216,-1,216,299,298,-1,216,298,250,-1,250,298,359,-1,250,359,296,-1,296,359,523,-1,296,523,522,-1,363,524,361,-1,361,524,525,-1,361,525,360,-1,360,525,526,-1,360,526,359,-1,359,526,527,-1,359,527,523,-1,28,362,29,-1,29,362,364,-1,29,364,528,-1,528,364,365,-1,528,365,529,-1,529,365,366,-1,529,366,530,-1,530,366,367,-1,530,367,531,-1,531,367,175,-1,531,175,532,-1,532,175,173,-1,532,173,116,-1,116,173,171,-1,116,171,126,-1,126,171,170,-1,25,27,26,-1,26,27,29,-1,26,29,533,-1,533,29,528,-1,533,528,534,-1,534,528,529,-1,534,529,535,-1,535,529,530,-1,535,530,536,-1,536,530,531,-1,536,531,537,-1,537,531,532,-1,537,532,538,-1,538,532,116,-1,538,116,539,-1,539,116,115,-1,540,24,305,-1,305,24,26,-1,305,26,304,-1,304,26,533,-1,304,533,303,-1,303,533,534,-1,303,534,302,-1,302,534,535,-1,302,535,301,-1,301,535,536,-1,301,536,300,-1,300,536,537,-1,300,537,113,-1,113,537,538,-1,113,538,111,-1,111,538,539,-1,182,376,183,-1,183,376,308,-1,183,308,220,-1,220,308,307,-1,220,307,257,-1,257,307,368,-1,257,368,305,-1,305,368,541,-1,305,541,540,-1,372,542,370,-1,370,542,543,-1,370,543,369,-1,369,543,544,-1,369,544,368,-1,368,544,545,-1,368,545,541,-1,546,371,389,-1,389,371,373,-1,389,373,387,-1,387,373,374,-1,387,374,385,-1,385,374,375,-1,385,375,383,-1,383,375,376,-1,383,376,381,-1,381,376,182,-1,381,182,379,-1,379,182,180,-1,379,180,107,-1,107,180,178,-1,107,178,130,-1,130,178,177,-1,23,22,389,-1,389,22,547,-1,389,547,546,-1,548,21,314,-1,314,21,23,-1,314,23,313,-1,313,23,388,-1,313,388,312,-1,312,388,386,-1,312,386,311,-1,311,386,384,-1,311,384,310,-1,310,384,382,-1,310,382,309,-1,309,382,380,-1,309,380,104,-1,104,380,378,-1,104,378,102,-1,102,378,377,-1,187,398,188,-1,188,398,317,-1,188,317,224,-1,224,317,316,-1,224,316,264,-1,264,316,390,-1,264,390,314,-1,314,390,549,-1,314,549,548,-1,394,550,392,-1,392,550,551,-1,392,551,391,-1,391,551,552,-1,391,552,390,-1,390,552,553,-1,390,553,549,-1,554,393,411,-1,411,393,395,-1,411,395,409,-1,409,395,396,-1,409,396,407,-1,407,396,397,-1,407,397,405,-1,405,397,398,-1,405,398,403,-1,403,398,187,-1,403,187,401,-1,401,187,185,-1,401,185,95,-1,95,185,98,-1,95,98,93,-1,93,98,97,-1,20,19,411,-1,411,19,555,-1,411,555,554,-1,399,90,400,-1,400,90,92,-1,400,92,402,-1,402,92,414,-1,402,414,404,-1,404,414,416,-1,404,416,406,-1,406,416,418,-1,406,418,408,-1,408,418,420,-1,408,420,410,-1,410,420,422,-1,410,422,20,-1,20,422,424,-1,20,424,18,-1,556,557,558,-1,558,557,425,-1,558,425,559,-1,559,425,423,-1,559,423,560,-1,560,423,421,-1,560,421,561,-1,561,421,419,-1,561,419,562,-1,562,419,417,-1,562,417,563,-1,563,417,415,-1,563,415,136,-1,136,415,413,-1,136,413,134,-1,134,413,412,-1,557,564,425,-1,425,564,565,-1,425,565,424,-1,424,565,566,-1,424,566,18,-1,135,87,136,-1,136,87,89,-1,136,89,563,-1,563,89,426,-1,563,426,562,-1,562,426,428,-1,562,428,561,-1,561,428,430,-1,561,430,560,-1,560,430,432,-1,560,432,559,-1,559,432,434,-1,559,434,558,-1,558,434,436,-1,558,436,556,-1,567,568,569,-1,569,568,445,-1,569,445,570,-1,570,445,444,-1,570,444,571,-1,571,444,443,-1,571,443,572,-1,572,443,442,-1,572,442,573,-1,573,442,441,-1,573,441,574,-1,574,441,440,-1,574,440,139,-1,139,440,439,-1,139,439,137,-1,137,439,438,-1,568,575,445,-1,445,575,576,-1,445,576,437,-1,437,576,577,-1,437,577,436,-1,436,577,578,-1,436,578,556,-1,138,81,139,-1,139,81,83,-1,139,83,574,-1,574,83,448,-1,574,448,573,-1,573,448,450,-1,573,450,572,-1,572,450,452,-1,572,452,571,-1,571,452,454,-1,571,454,570,-1,570,454,456,-1,570,456,569,-1,569,456,458,-1,569,458,567,-1,579,580,581,-1,581,580,459,-1,581,459,582,-1,582,459,457,-1,582,457,583,-1,583,457,455,-1,583,455,584,-1,584,455,453,-1,584,453,585,-1,585,453,451,-1,585,451,586,-1,586,451,449,-1,586,449,142,-1,142,449,447,-1,142,447,140,-1,140,447,446,-1,580,587,459,-1,459,587,588,-1,459,588,458,-1,458,588,589,-1,458,589,567,-1,16,579,17,-1,17,579,581,-1,17,581,590,-1,590,581,582,-1,590,582,591,-1,591,582,583,-1,591,583,592,-1,592,583,584,-1,592,584,593,-1,593,584,585,-1,593,585,594,-1,594,585,586,-1,594,586,595,-1,595,586,142,-1,595,142,596,-1,596,142,141,-1,597,15,323,-1,323,15,17,-1,323,17,322,-1,322,17,590,-1,322,590,321,-1,321,590,591,-1,321,591,320,-1,320,591,592,-1,320,592,319,-1,319,592,593,-1,319,593,318,-1,318,593,594,-1,318,594,80,-1,80,594,595,-1,80,595,78,-1,78,595,596,-1,194,468,195,-1,195,468,326,-1,195,326,228,-1,228,326,325,-1,228,325,271,-1,271,325,460,-1,271,460,323,-1,323,460,598,-1,323,598,597,-1,464,599,462,-1,462,599,600,-1,462,600,461,-1,461,600,601,-1,461,601,460,-1,460,601,602,-1,460,602,598,-1,13,463,14,-1,14,463,465,-1,14,465,603,-1,603,465,466,-1,603,466,604,-1,604,466,467,-1,604,467,605,-1,605,467,468,-1,605,468,606,-1,606,468,194,-1,606,194,607,-1,607,194,192,-1,607,192,74,-1,74,192,190,-1,74,190,146,-1,146,190,189,-1,10,12,11,-1,11,12,14,-1,11,14,608,-1,608,14,603,-1,608,603,609,-1,609,603,604,-1,609,604,610,-1,610,604,605,-1,610,605,611,-1,611,605,606,-1,611,606,612,-1,612,606,607,-1,612,607,613,-1,613,607,74,-1,613,74,614,-1,614,74,73,-1,615,9,332,-1,332,9,11,-1,332,11,331,-1,331,11,608,-1,331,608,330,-1,330,608,609,-1,330,609,329,-1,329,609,610,-1,329,610,328,-1,328,610,611,-1,328,611,327,-1,327,611,612,-1,327,612,71,-1,71,612,613,-1,71,613,69,-1,69,613,614,-1,201,477,202,-1,202,477,335,-1,202,335,232,-1,232,335,334,-1,232,334,278,-1,278,334,469,-1,278,469,332,-1,332,469,616,-1,332,616,615,-1,473,617,471,-1,471,617,618,-1,471,618,470,-1,470,618,619,-1,470,619,469,-1,469,619,620,-1,469,620,616,-1,621,472,490,-1,490,472,474,-1,490,474,488,-1,488,474,475,-1,488,475,486,-1,486,475,476,-1,486,476,484,-1,484,476,477,-1,484,477,482,-1,482,477,201,-1,482,201,480,-1,480,201,199,-1,480,199,65,-1,65,199,197,-1,65,197,150,-1,150,197,196,-1,8,7,490,-1,490,7,622,-1,490,622,621,-1,623,6,341,-1,341,6,8,-1,341,8,340,-1,340,8,489,-1,340,489,339,-1,339,489,487,-1,339,487,338,-1,338,487,485,-1,338,485,337,-1,337,485,483,-1,337,483,336,-1,336,483,481,-1,336,481,62,-1,62,481,479,-1,62,479,60,-1,60,479,478,-1,206,499,207,-1,207,499,344,-1,207,344,236,-1,236,344,343,-1,236,343,285,-1,285,343,491,-1,285,491,341,-1,341,491,624,-1,341,624,623,-1,495,625,493,-1,493,625,626,-1,493,626,492,-1,492,626,627,-1,492,627,491,-1,491,627,628,-1,491,628,624,-1,4,494,5,-1,5,494,496,-1,5,496,286,-1,286,496,497,-1,286,497,237,-1,237,497,498,-1,237,498,208,-1,208,498,499,-1,208,499,168,-1,168,499,206,-1,168,206,38,-1,38,206,204,-1,38,204,36,-1,36,204,56,-1,36,56,157,-1,157,56,55,-1,48,50,164,-1,164,50,629,-1,164,629,349,-1,349,629,630,-1,349,630,348,-1,348,630,631,-1,348,631,347,-1,347,631,632,-1,347,632,346,-1,346,632,633,-1,346,633,345,-1,345,633,634,-1,345,634,5,-1,5,634,635,-1,5,635,3,-1,636,637,638,-1,49,47,50,-1,50,47,639,-1,50,639,629,-1,629,639,640,-1,629,640,630,-1,630,640,641,-1,630,641,631,-1,631,641,642,-1,631,642,632,-1,632,642,643,-1,632,643,633,-1,633,643,636,-1,633,636,634,-1,634,636,638,-1,634,638,635,-1,46,167,47,-1,47,167,644,-1,47,644,639,-1,639,644,645,-1,639,645,640,-1,640,645,646,-1,640,646,641,-1,641,646,647,-1,641,647,642,-1,642,647,648,-1,642,648,643,-1,643,648,2,-1,643,2,636,-1,636,2,1,-1,636,1,637,-1,42,44,167,-1,167,44,649,-1,167,649,644,-1,644,649,650,-1,644,650,645,-1,645,650,651,-1,645,651,646,-1,646,651,652,-1,646,652,647,-1,647,652,653,-1,647,653,648,-1,648,653,654,-1,648,654,2,-1,2,654,655,-1,2,655,0,-1,656,657,658,-1,43,41,44,-1,44,41,659,-1,44,659,649,-1,649,659,660,-1,649,660,650,-1,650,660,661,-1,650,661,651,-1,651,661,662,-1,651,662,652,-1,652,662,663,-1,652,663,653,-1,653,663,656,-1,653,656,654,-1,654,656,658,-1,654,658,655,-1,40,521,41,-1,41,521,512,-1,41,512,659,-1,659,512,358,-1,659,358,660,-1,660,358,243,-1,660,243,661,-1,661,243,242,-1,661,242,662,-1,662,242,500,-1,662,500,663,-1,663,500,501,-1,663,501,656,-1,656,501,503,-1,656,503,657,-1,664,665,666,-1,666,665,667,-1,668,669,667,-1,667,669,670,-1,671,672,673,-1,671,673,674,-1,670,675,667,-1,667,675,676,-1,667,676,677,-1,677,678,667,-1,667,678,679,-1,667,679,680,-1,672,681,673,-1,673,681,682,-1,673,682,683,-1,684,685,683,-1,683,685,686,-1,683,686,687,-1,667,688,689,-1,690,691,667,-1,667,691,692,-1,667,692,668,-1,680,693,667,-1,667,693,694,-1,667,694,666,-1,695,696,683,-1,683,696,697,-1,683,697,698,-1,698,699,683,-1,683,699,700,-1,683,700,684,-1,689,701,667,-1,667,701,702,-1,667,702,690,-1,687,703,683,-1,683,703,704,-1,683,704,673,-1,674,673,667,-1,667,673,705,-1,667,705,706,-1,706,707,667,-1,667,707,708,-1,667,708,688,-1,709,79,710,-1,710,79,78,-1,710,78,711,-1,711,78,596,-1,711,596,712,-1,712,596,141,-1,712,141,713,-1,713,141,140,-1,713,140,714,-1,714,140,446,-1,714,446,715,-1,715,446,82,-1,715,82,716,-1,716,82,81,-1,716,81,717,-1,717,81,138,-1,717,138,718,-1,718,138,137,-1,718,137,719,-1,719,137,438,-1,719,438,720,-1,720,438,85,-1,720,85,721,-1,721,85,84,-1,721,84,722,-1,722,84,88,-1,722,88,723,-1,723,88,87,-1,723,87,724,-1,724,87,135,-1,724,135,725,-1,725,135,134,-1,725,134,726,-1,726,134,412,-1,726,412,727,-1,727,412,91,-1,727,91,728,-1,728,91,90,-1,728,90,729,-1,729,90,399,-1,729,399,730,-1,730,399,94,-1,730,94,731,-1,731,94,93,-1,731,93,732,-1,732,93,97,-1,732,97,733,-1,733,97,96,-1,733,96,734,-1,734,96,100,-1,734,100,735,-1,735,100,99,-1,735,99,736,-1,736,99,132,-1,736,132,737,-1,737,132,131,-1,737,131,738,-1,738,131,258,-1,738,258,739,-1,739,258,103,-1,739,103,740,-1,740,103,102,-1,740,102,741,-1,741,102,377,-1,741,377,742,-1,742,377,106,-1,742,106,743,-1,743,106,105,-1,743,105,744,-1,744,105,130,-1,744,130,745,-1,745,130,177,-1,745,177,746,-1,746,177,109,-1,746,109,747,-1,747,109,108,-1,747,108,748,-1,748,108,128,-1,748,128,749,-1,749,128,127,-1,749,127,750,-1,750,127,251,-1,750,251,751,-1,751,251,112,-1,751,112,752,-1,752,112,111,-1,752,111,753,-1,753,111,539,-1,753,539,754,-1,754,539,115,-1,754,115,755,-1,755,115,114,-1,755,114,756,-1,756,114,126,-1,756,126,757,-1,757,126,170,-1,757,170,758,-1,758,170,118,-1,758,118,759,-1,759,118,117,-1,759,117,760,-1,760,117,124,-1,760,124,761,-1,761,124,123,-1,761,123,762,-1,762,123,244,-1,762,244,763,-1,763,244,121,-1,763,121,764,-1,764,121,120,-1,764,120,765,-1,765,120,40,-1,765,40,766,-1,766,40,39,-1,766,39,767,-1,767,39,43,-1,767,43,768,-1,768,43,42,-1,768,42,769,-1,769,42,166,-1,769,166,770,-1,770,166,46,-1,770,46,771,-1,771,46,45,-1,771,45,772,-1,772,45,49,-1,772,49,773,-1,773,49,48,-1,773,48,774,-1,774,48,165,-1,774,165,775,-1,775,165,163,-1,775,163,776,-1,776,163,162,-1,776,162,777,-1,777,162,52,-1,777,52,778,-1,778,52,51,-1,778,51,779,-1,779,51,212,-1,779,212,780,-1,780,212,160,-1,780,160,781,-1,781,160,159,-1,781,159,782,-1,782,159,154,-1,782,154,783,-1,783,154,155,-1,783,155,784,-1,784,155,156,-1,784,156,785,-1,785,156,157,-1,785,157,786,-1,786,157,55,-1,786,55,787,-1,787,55,54,-1,787,54,788,-1,788,54,58,-1,788,58,789,-1,789,58,57,-1,789,57,790,-1,790,57,152,-1,790,152,791,-1,791,152,151,-1,791,151,792,-1,792,151,279,-1,792,279,793,-1,793,279,61,-1,793,61,794,-1,794,61,60,-1,794,60,795,-1,795,60,478,-1,795,478,796,-1,796,478,64,-1,796,64,797,-1,797,64,63,-1,797,63,798,-1,798,63,150,-1,798,150,799,-1,799,150,196,-1,799,196,800,-1,800,196,67,-1,800,67,801,-1,801,67,66,-1,801,66,802,-1,802,66,148,-1,802,148,803,-1,803,148,147,-1,803,147,804,-1,804,147,272,-1,804,272,805,-1,805,272,70,-1,805,70,806,-1,806,70,69,-1,806,69,807,-1,807,69,614,-1,807,614,808,-1,808,614,73,-1,808,73,809,-1,809,73,72,-1,809,72,810,-1,810,72,146,-1,810,146,811,-1,811,146,189,-1,811,189,812,-1,812,189,76,-1,812,76,813,-1,813,76,75,-1,813,75,814,-1,814,75,144,-1,814,144,815,-1,815,144,143,-1,815,143,816,-1,816,143,265,-1,816,265,709,-1,709,265,79,-1,
        ]
    }
}
Shape{
    appearance Appearance {
        material  Material 	{
            diffuseColor 0.25098039215686274 0.25098039215686274 0.25098039215686274
            specularColor 0.12549019607843137 0.12549019607843137 0.12549019607843137
            ambientIntensity 0.251
            transparency 0.0
            shininess 0.5
        }
    }
    geometry IndexedFaceSet {
        ccw TRUE
        solid FALSE
        coord DEF co Coordinate {
            point [
                1.2992 0.8268 0.0079, 0.8268 1.2992 0.0079, 1.2992 0.8268 0.3228, 0.8268 1.2992 0.3228, 0.8268 -1.2992 0.0079, 1.2992 -0.8268 0.0079, 0.8268 -1.2992 0.3228, 1.2992 -0.8268 0.3228, 0.1575 0.1575 0.0079, 1.2992 0.1575 0.0079, 0.1575 0.1575 0.0866, 1.2992 0.1575 0.0866, 0.1575 -0.1575 0.0866, 1.2992 -0.1575 0.0866, 0.1575 -0.1575 0.0079, 1.2992 -0.1575 0.0079, -0.1575 0.1575 0.0866, -1.2992 0.1575 0.0866, -0.1575 0.1575 0.0079, -1.2992 0.1575 0.0079, -0.1575 -0.1575 0.0079, -1.2992 -0.1575 0.0079, -0.1575 -0.1575 0.0866, -1.2992 -0.1575 0.0866
            ]
        }
        coordIndex [
            0,1,2,-1,2,1,3,-1,4,5,6,-1,6,5,7,-1,8,9,10,-1,10,9,11,-1,12,13,14,-1,14,13,15,-1,10,12,8,-1,8,12,14,-1,16,17,18,-1,18,17,19,-1,20,21,22,-1,22,21,23,-1,22,16,20,-1,20,16,18,-1,
        ]
    }
}
Shape{
    appearance Appearance {
        material  Material 	{
            diffuseColor 1.0 1.0 1.0
            specularColor 0.5019607843137255 0.5019607843137255 0.5019607843137255
            ambientIntensity 1.0
            transparency 0.0
            shininess 0.5
        }
    }
    geometry IndexedFaceSet {
        ccw TRUE
        solid FALSE
        coord DEF co Coordinate {
            point [
                -1.2992 0.1476 0.0866, -1.378 0.1476 0.0866, -1.2992 -0.1476 0.0866, -1.378 -0.1476 0.0866, -0.3543 0.1476 0.0866, -0.3543 0.1476 0.0, -1.378 0.1476 0.0, -1.378 -0.1476 0.0, -0.3543 -0.1476 0.0, -0.3543 -0.1476 0.0866, 1.3779 -0.1476 0.0866, 1.3779 0.1476 0.0866, 1.2992 -0.1476 0.0866, 1.2992 0.1476 0.0866, 0.3543 0.1476 0.0, 0.3543 0.1476 0.0866, 1.3779 0.1476 0.0, 0.3543 -0.1476 0.0, 0.3543 -0.1476 0.0866, 1.3779 -0.1476 0.0, 1.2272 0.1687 3.0, 1.2163 0.242 3.0, 1.215 0.2417 3.0102, 1.1367 0.4937 3.0, 1.0937 0.5846 3.0, 1.0925 0.584 3.0102, 1.0583 0.6436 3.0, 1.0311 0.689 3.0, 1.03 0.6883 3.0102, 0.9618 0.7825 3.0, 0.9586 0.7868 3.0, 0.9576 0.7859 3.0102, 0.8456 0.9054 3.0, 0.7867 0.9587 3.0, 0.7859 0.9576 3.0102, 0.7145 1.0123 3.0, 0.689 1.0312 3.0, 0.6882 1.03 3.0102, 0.5703 1.1005 3.0, 0.4746 1.1458 3.0, 0.4741 1.1445 3.0102, 0.4148 1.1672 3.0, 0.36 1.1868 3.0, 0.3596 1.1855 3.0102, 0.0846 1.236 3.0, -0.0 1.2402 3.0, -0.0 1.2388 3.0102, -0.0846 1.236 3.0, -0.1216 1.2342 3.0, -0.1214 1.2329 3.0102, -0.2522 1.2138 3.0, -0.36 1.1868 3.0, -0.3596 1.1855 3.0102, -0.4148 1.1672 3.0, -0.4746 1.1458 3.0, -0.4741 1.1445 3.0102, -0.7145 1.0123 3.0, -0.7868 0.9587 3.0, -0.7859 0.9576 3.0102, -0.8456 0.9054 3.0, -0.8769 0.8769 3.0, -0.876 0.876 3.0102, -0.9618 0.7825 3.0, -1.0312 0.689 3.0, -1.03 0.6883 3.0102, -1.0584 0.6436 3.0, -1.0937 0.5846 3.0, -1.0925 0.584 3.0102, -1.1932 0.3344 3.0, -1.2163 0.242 3.0, -1.215 0.2417 3.0102, -1.2272 0.1687 3.0, -1.2342 0.1216 3.0, -1.2329 0.1214 3.0102, -1.2272 -0.1686 3.0, -1.2163 -0.2419 3.0, -1.215 -0.2417 3.0102, -1.1367 -0.4937 3.0, -1.0937 -0.5846 3.0, -1.0925 -0.584 3.0102, -1.0584 -0.6436 3.0, -1.0312 -0.689 3.0, -1.03 -0.6882 3.0102, -0.9618 -0.7825 3.0, -0.9587 -0.7867 3.0, -0.9576 -0.7859 3.0102, -0.8456 -0.9053 3.0, -0.7868 -0.9586 3.0, -0.7859 -0.9576 3.0102, -0.7145 -1.0122 3.0, -0.689 -1.0311 3.0, -0.6883 -1.03 3.0102, -0.5703 -1.1005 3.0, -0.4746 -1.1457 3.0, -0.4741 -1.1445 3.0102, -0.4148 -1.1671 3.0, -0.36 -1.1867 3.0, -0.3596 -1.1855 3.0102, -0.0846 -1.236 3.0, -0.0 -1.2401 3.0, -0.0 -1.2388 3.0102, 0.0846 -1.236 3.0, 0.1215 -1.2342 3.0, 0.1214 -1.2328 3.0102, 0.2522 -1.2137 3.0, 0.36 -1.1867 3.0, 0.3596 -1.1855 3.0102, 0.4148 -1.1671 3.0, 0.4746 -1.1457 3.0, 0.4741 -1.1445 3.0102, 0.7145 -1.0122 3.0, 0.7867 -0.9586 3.0, 0.7859 -0.9576 3.0102, 0.8456 -0.9053 3.0, 0.8769 -0.8769 3.0, 0.876 -0.876 3.0102, 0.9618 -0.7825 3.0, 1.0311 -0.689 3.0, 1.03 -0.6882 3.0102, 1.0583 -0.6436 3.0, 1.0937 -0.5846 3.0, 1.0925 -0.584 3.0102, 1.1932 -0.3343 3.0, 1.2163 -0.2419 3.0, 1.215 -0.2417 3.0102, 1.2272 -0.1686 3.0, 1.2342 -0.1215 3.0, 1.2328 -0.1214 3.0102, -0.5852 1.0486 3.0394, -0.5661 1.059 3.0394, -0.5709 1.068 3.038, -0.8394 0.8579 3.0394, -0.7618 0.9282 3.0394, -0.7682 0.9361 3.038, -0.9451 0.739 3.0394, -0.9282 0.7618 3.0394, -0.9361 0.7682 3.038, -1.1066 0.4655 3.0394, -1.059 0.5661 3.0394, -1.068 0.5709 3.038, -1.1576 0.3147 3.0394, -1.1491 0.3486 3.0394, -1.1588 0.3515 3.038, -1.1889 0.1587 3.0394, -1.1777 0.2343 3.0394, -1.1877 0.2363 3.038, -1.1889 -0.1587 3.0394, -1.195 -0.1177 3.0394, -1.2052 -0.1187 3.038, -1.1576 -0.3147 3.0394, -1.1777 -0.2343 3.0394, -1.1877 -0.2362 3.038, -1.1066 -0.4654 3.0394, -1.1094 -0.4595 3.0394, -1.1188 -0.4634 3.038, -0.9451 -0.739 3.0394, -0.9984 -0.6671 3.0394, -1.0069 -0.6728 3.038, -0.8394 -0.8579 3.0394, -0.8491 -0.8491 3.0394, -0.8563 -0.8563 3.038, -0.5852 -1.0485 3.0394, -0.6671 -0.9984 3.0394, -0.6728 -1.0069 3.038, -0.7618 -0.9282 3.0394, -1.059 -0.566 3.0394, -0.9984 0.6671 3.0394, -0.6671 0.9984 3.0394, 1.1094 -0.4595 3.0394, 1.059 -0.566 3.0394, 1.1188 -0.4634 3.038, 1.068 -0.5708 3.038, 1.1276 -0.467 3.0341, 1.0764 -0.5753 3.0341, 1.1351 -0.4702 3.0278, 1.0835 -0.5792 3.0278, 1.1409 -0.4726 3.0197, 1.0891 -0.5821 3.0197, 1.1445 -0.4741 3.0102, 0.566 -1.059 3.0394, 0.4595 -1.1094 3.0394, 0.5708 -1.068 3.038, 0.4634 -1.1188 3.038, 0.5753 -1.0764 3.0341, 0.467 -1.1276 3.0341, 0.5792 -1.0835 3.0278, 0.4702 -1.1351 3.0278, 0.5821 -1.0891 3.0197, 0.4726 -1.1409 3.0197, 0.584 -1.0925 3.0102, -0.2343 -1.1777 3.0394, -0.3486 -1.1491 3.0394, -0.2363 -1.1877 3.038, -0.3515 -1.1588 3.038, -0.2381 -1.197 3.0341, -0.3543 -1.1679 3.0341, -0.2397 -1.205 3.0278, -0.3567 -1.1757 3.0278, -0.2409 -1.2111 3.0197, -0.3585 -1.1817 3.0197, -0.2417 -1.215 3.0102, -1.1491 -0.3486 3.0394, -1.1588 -0.3515 3.038, -1.1679 -0.3543 3.0341, -1.197 -0.2381 3.0341, -1.1757 -0.3566 3.0278, -1.205 -0.2397 3.0278, -1.1817 -0.3585 3.0197, -1.2112 -0.2409 3.0197, -1.1855 -0.3596 3.0102, -1.1094 0.4595 3.0394, -1.1188 0.4634 3.038, -1.1276 0.4671 3.0341, -1.0764 0.5753 3.0341, -1.1351 0.4702 3.0278, -1.0836 0.5792 3.0278, -1.1409 0.4726 3.0197, -1.0891 0.5821 3.0197, -1.1445 0.4741 3.0102, -0.4595 1.1094 3.0394, -0.4634 1.1188 3.038, -0.5753 1.0764 3.0341, -0.4671 1.1276 3.0341, -0.5792 1.0836 3.0278, -0.4702 1.1351 3.0278, -0.5821 1.0891 3.0197, -0.4726 1.1409 3.0197, -0.584 1.0925 3.0102, 0.2343 1.1777 3.0394, 0.3486 1.1491 3.0394, 0.2362 1.1877 3.038, 0.3515 1.1588 3.038, 0.2381 1.197 3.0341, 0.3543 1.1679 3.0341, 0.2397 1.205 3.0278, 0.3566 1.1757 3.0278, 0.2409 1.2112 3.0197, 0.3585 1.1817 3.0197, 0.2417 1.215 3.0102, 1.1491 0.3486 3.0394, 1.1777 0.2343 3.0394, 1.1588 0.3515 3.038, 1.1877 0.2363 3.038, 1.1679 0.3543 3.0341, 1.197 0.2381 3.0341, 1.1757 0.3567 3.0278, 1.205 0.2397 3.0278, 1.1817 0.3585 3.0197, 1.2111 0.2409 3.0197, 1.1855 0.3596 3.0102, 1.2008 0.0 3.0394, 1.195 -0.1177 3.0394, 1.211 0.0 3.038, 1.2051 -0.1187 3.038, 1.2205 0.0 3.0341, 1.2146 -0.1196 3.0341, 1.2286 0.0 3.0278, 1.2227 -0.1204 3.0278, 1.2349 0.0 3.0197, 1.2289 -0.121 3.0197, 1.2388 0.0 3.0102, 1.2401 0.0 3.0, 1.1777 -0.2343 3.0394, 1.1877 -0.2362 3.038, 1.197 -0.2381 3.0341, 1.205 -0.2397 3.0278, 1.2111 -0.2409 3.0197, 1.1867 -0.36 3.0, 1.1855 -0.3596 3.0102, 1.1817 -0.3585 3.0197, 1.1757 -0.3566 3.0278, 1.1679 -0.3543 3.0341, 1.1588 -0.3515 3.038, 1.1491 -0.3486 3.0394, 1.1457 -0.4746 3.0, 1.1367 -0.4937 3.0, 1.0268 -0.6861 3.0197, 1.0216 -0.6826 3.0278, 1.0148 -0.678 3.0341, 1.0069 -0.6728 3.038, 0.9984 -0.6671 3.0394, 0.9586 -0.7867 3.0, 0.9576 -0.7859 3.0102, 0.9546 -0.7834 3.0197, 0.9497 -0.7794 3.0278, 0.9434 -0.7742 3.0341, 0.9361 -0.7682 3.038, 0.9282 -0.7618 3.0394, 0.8491 -0.8491 3.0394, 0.8563 -0.8563 3.038, 0.863 -0.863 3.0341, 0.8688 -0.8688 3.0278, 0.8732 -0.8732 3.0197, 0.7618 -0.9282 3.0394, 0.7682 -0.9361 3.038, 0.7742 -0.9434 3.0341, 0.7794 -0.9497 3.0278, 0.7834 -0.9546 3.0197, 0.689 -1.0311 3.0, 0.6882 -1.03 3.0102, 0.6861 -1.0268 3.0197, 0.6826 -1.0216 3.0278, 0.678 -1.0148 3.0341, 0.6728 -1.0069 3.038, 0.6671 -0.9984 3.0394, 0.5846 -1.0937 3.0, 0.5703 -1.1005 3.0, 0.3585 -1.1817 3.0197, 0.3566 -1.1757 3.0278, 0.3543 -1.1679 3.0341, 0.3515 -1.1588 3.038, 0.3486 -1.1491 3.0394, 0.2419 -1.2163 3.0, 0.2417 -1.215 3.0102, 0.2409 -1.2111 3.0197, 0.2397 -1.205 3.0278, 0.2381 -1.197 3.0341, 0.2362 -1.1877 3.038, 0.2343 -1.1777 3.0394, 0.1177 -1.195 3.0394, 0.1187 -1.2051 3.038, 0.1196 -1.2146 3.0341, 0.1204 -1.2227 3.0278, 0.121 -1.2289 3.0197, -0.0 -1.2008 3.0394, -0.0 -1.211 3.038, -0.0 -1.2205 3.0341, -0.0 -1.2286 3.0278, -0.0 -1.2349 3.0197, -0.1216 -1.2342 3.0, -0.1214 -1.2328 3.0102, -0.121 -1.2289 3.0197, -0.1204 -1.2227 3.0278, -0.1196 -1.2146 3.0341, -0.1187 -1.2051 3.038, -0.1177 -1.195 3.0394, -0.242 -1.2163 3.0, -0.2522 -1.2137 3.0, -0.4595 -1.1094 3.0394, -0.4634 -1.1188 3.038, -0.4671 -1.1276 3.0341, -0.4702 -1.1351 3.0278, -0.4726 -1.1409 3.0197, -0.5846 -1.0937 3.0, -0.584 -1.0925 3.0102, -0.5821 -1.0891 3.0197, -0.5792 -1.0835 3.0278, -0.5753 -1.0764 3.0341, -0.5709 -1.068 3.038, -0.5661 -1.059 3.0394, -0.6781 -1.0148 3.0341, -0.6826 -1.0216 3.0278, -0.6861 -1.0268 3.0197, -0.7179 -0.9607 3.0394, -0.7682 -0.9361 3.038, -0.7743 -0.9434 3.0341, -0.7794 -0.9497 3.0278, -0.7834 -0.9546 3.0197, -0.8769 -0.8769 3.0, -0.876 -0.876 3.0102, -0.8732 -0.8732 3.0197, -0.8688 -0.8688 3.0278, -0.863 -0.863 3.0341, -0.9282 -0.7618 3.0394, -0.9361 -0.7682 3.038, -0.9434 -0.7742 3.0341, -0.9498 -0.7794 3.0278, -0.9546 -0.7834 3.0197, -1.0268 -0.6861 3.0197, -1.0216 -0.6826 3.0278, -1.0148 -0.678 3.0341, -1.0343 -0.6072 3.0394, -1.068 -0.5708 3.038, -1.0764 -0.5753 3.0341, -1.0836 -0.5792 3.0278, -1.0891 -0.5821 3.0197, -1.1458 -0.4746 3.0, -1.1445 -0.4741 3.0102, -1.1409 -0.4726 3.0197, -1.1351 -0.4702 3.0278, -1.1276 -0.467 3.0341, -1.1868 -0.36 3.0, -1.1932 -0.3343 3.0, -1.2342 -0.1215 3.0, -1.2329 -0.1214 3.0102, -1.2289 -0.121 3.0197, -1.2227 -0.1204 3.0278, -1.2146 -0.1196 3.0341, -1.2008 0.0 3.0394, -1.211 0.0 3.038, -1.2205 0.0 3.0341, -1.2286 0.0 3.0278, -1.2349 0.0 3.0197, -1.2388 0.0 3.0102, -1.2402 0.0 3.0, -1.195 0.1177 3.0394, -1.2052 0.1187 3.038, -1.2146 0.1196 3.0341, -1.2227 0.1204 3.0278, -1.2289 0.121 3.0197, -1.197 0.2381 3.0341, -1.205 0.2397 3.0278, -1.2112 0.2409 3.0197, -1.1868 0.36 3.0, -1.1855 0.3596 3.0102, -1.1817 0.3585 3.0197, -1.1757 0.3567 3.0278, -1.1679 0.3543 3.0341, -1.1458 0.4746 3.0, -1.1367 0.4937 3.0, -1.0268 0.6861 3.0197, -1.0216 0.6826 3.0278, -1.0148 0.6781 3.0341, -1.0069 0.6728 3.038, -1.0343 0.6073 3.0394, -0.9587 0.7868 3.0, -0.9576 0.7859 3.0102, -0.9546 0.7834 3.0197, -0.9498 0.7794 3.0278, -0.9434 0.7743 3.0341, -0.8491 0.8491 3.0394, -0.8563 0.8563 3.038, -0.863 0.863 3.0341, -0.8688 0.8688 3.0278, -0.8732 0.8732 3.0197, -0.7743 0.9434 3.0341, -0.7794 0.9498 3.0278, -0.7834 0.9546 3.0197, -0.689 1.0312 3.0, -0.6883 1.03 3.0102, -0.6861 1.0268 3.0197, -0.6826 1.0216 3.0278, -0.6781 1.0148 3.0341, -0.6728 1.0069 3.038, -0.7179 0.9608 3.0394, -0.5846 1.0937 3.0, -0.5703 1.1005 3.0, -0.3585 1.1817 3.0197, -0.3567 1.1757 3.0278, -0.3543 1.1679 3.0341, -0.3515 1.1588 3.038, -0.3486 1.1491 3.0394, -0.242 1.2163 3.0, -0.2417 1.215 3.0102, -0.2409 1.2112 3.0197, -0.2397 1.205 3.0278, -0.2381 1.197 3.0341, -0.2363 1.1877 3.038, -0.2343 1.1777 3.0394, -0.1177 1.195 3.0394, -0.1187 1.2052 3.038, -0.1196 1.2146 3.0341, -0.1204 1.2227 3.0278, -0.121 1.2289 3.0197, -0.0 1.2008 3.0394, -0.0 1.211 3.038, -0.0 1.2205 3.0341, -0.0 1.2286 3.0278, -0.0 1.2349 3.0197, 0.1215 1.2342 3.0, 0.1214 1.2329 3.0102, 0.121 1.2289 3.0197, 0.1204 1.2227 3.0278, 0.1196 1.2146 3.0341, 0.1187 1.2052 3.038, 0.1177 1.195 3.0394, 0.2419 1.2163 3.0, 0.2522 1.2138 3.0, 0.4595 1.1094 3.0394, 0.4634 1.1188 3.038, 0.467 1.1276 3.0341, 0.4702 1.1351 3.0278, 0.4726 1.1409 3.0197, 0.5846 1.0937 3.0, 0.584 1.0925 3.0102, 0.5821 1.0891 3.0197, 0.5792 1.0836 3.0278, 0.5753 1.0764 3.0341, 0.5708 1.068 3.038, 0.566 1.059 3.0394, 0.6671 0.9984 3.0394, 0.6728 1.0069 3.038, 0.678 1.0148 3.0341, 0.6826 1.0216 3.0278, 0.6861 1.0268 3.0197, 0.7618 0.9282 3.0394, 0.7682 0.9361 3.038, 0.7742 0.9434 3.0341, 0.7794 0.9498 3.0278, 0.7834 0.9546 3.0197, 0.8769 0.8769 3.0, 0.876 0.876 3.0102, 0.8732 0.8732 3.0197, 0.8688 0.8688 3.0278, 0.863 0.863 3.0341, 0.8563 0.8563 3.038, 0.8491 0.8491 3.0394, 0.9282 0.7618 3.0394, 0.9361 0.7682 3.038, 0.9434 0.7743 3.0341, 0.9497 0.7794 3.0278, 0.9546 0.7834 3.0197, 1.0268 0.6861 3.0197, 1.0216 0.6826 3.0278, 1.0148 0.6781 3.0341, 1.0069 0.6728 3.038, 0.9984 0.6671 3.0394, 1.059 0.5661 3.0394, 1.068 0.5709 3.038, 1.0764 0.5753 3.0341, 1.0835 0.5792 3.0278, 1.0891 0.5821 3.0197, 1.1457 0.4746 3.0, 1.1445 0.4741 3.0102, 1.1409 0.4726 3.0197, 1.1351 0.4702 3.0278, 1.1276 0.4671 3.0341, 1.1188 0.4634 3.038, 1.1094 0.4595 3.0394, 1.1867 0.36 3.0, 1.1932 0.3344 3.0, 1.2342 0.1216 3.0, 1.2328 0.1214 3.0102, 1.2289 0.121 3.0197, 1.2227 0.1204 3.0278, 1.2146 0.1196 3.0341, 1.2051 0.1187 3.038, 1.195 0.1177 3.0394
            ]
        }
        coordIndex [
            0,1,2,-1,2,1,3,-1,4,5,0,-1,0,5,6,-1,0,6,1,-1,7,3,6,-1,6,3,1,-1,8,9,7,-1,7,9,2,-1,7,2,3,-1,5,4,8,-1,8,4,9,-1,6,5,7,-1,7,5,8,-1,10,11,12,-1,12,11,13,-1,14,15,16,-1,16,15,13,-1,16,13,11,-1,17,18,14,-1,14,18,15,-1,18,17,12,-1,12,17,19,-1,12,19,10,-1,16,11,19,-1,19,11,10,-1,14,16,17,-1,17,16,19,-1,20,21,22,-1,23,24,25,-1,26,27,28,-1,29,30,31,-1,32,33,34,-1,35,36,37,-1,38,39,40,-1,41,42,43,-1,44,45,46,-1,47,48,49,-1,50,51,52,-1,53,54,55,-1,56,57,58,-1,59,60,61,-1,62,63,64,-1,65,66,67,-1,68,69,70,-1,71,72,73,-1,74,75,76,-1,77,78,79,-1,80,81,82,-1,83,84,85,-1,86,87,88,-1,89,90,91,-1,92,93,94,-1,95,96,97,-1,98,99,100,-1,101,102,103,-1,104,105,106,-1,107,108,109,-1,110,111,112,-1,113,114,115,-1,116,117,118,-1,119,120,121,-1,122,123,124,-1,125,126,127,-1,128,129,130,-1,131,132,133,-1,134,135,136,-1,137,138,139,-1,140,141,142,-1,143,144,145,-1,146,147,148,-1,149,150,151,-1,152,153,154,-1,155,156,157,-1,158,159,160,-1,161,162,163,-1,158,160,164,-1,152,154,165,-1,134,136,166,-1,128,130,167,-1,168,169,170,-1,170,169,171,-1,170,171,172,-1,172,171,173,-1,172,173,174,-1,174,173,175,-1,174,175,176,-1,176,175,177,-1,176,177,178,-1,178,177,121,-1,179,180,181,-1,181,180,182,-1,181,182,183,-1,183,182,184,-1,183,184,185,-1,185,184,186,-1,185,186,187,-1,187,186,188,-1,187,188,189,-1,189,188,109,-1,190,191,192,-1,192,191,193,-1,192,193,194,-1,194,193,195,-1,194,195,196,-1,196,195,197,-1,196,197,198,-1,198,197,199,-1,198,199,200,-1,200,199,97,-1,201,149,202,-1,202,149,151,-1,202,151,203,-1,203,151,204,-1,203,204,205,-1,205,204,206,-1,205,206,207,-1,207,206,208,-1,207,208,209,-1,209,208,76,-1,210,137,211,-1,211,137,139,-1,211,139,212,-1,212,139,213,-1,212,213,214,-1,214,213,215,-1,214,215,216,-1,216,215,217,-1,216,217,218,-1,218,217,67,-1,129,219,130,-1,130,219,220,-1,130,220,221,-1,221,220,222,-1,221,222,223,-1,223,222,224,-1,223,224,225,-1,225,224,226,-1,225,226,227,-1,227,226,55,-1,228,229,230,-1,230,229,231,-1,230,231,232,-1,232,231,233,-1,232,233,234,-1,234,233,235,-1,234,235,236,-1,236,235,237,-1,236,237,238,-1,238,237,43,-1,239,240,241,-1,241,240,242,-1,241,242,243,-1,243,242,244,-1,243,244,245,-1,245,244,246,-1,245,246,247,-1,247,246,248,-1,247,248,249,-1,249,248,22,-1,250,251,252,-1,252,251,253,-1,252,253,254,-1,254,253,255,-1,254,255,256,-1,256,255,257,-1,256,257,258,-1,258,257,259,-1,258,259,260,-1,260,259,127,-1,260,127,261,-1,261,127,126,-1,251,262,253,-1,253,262,263,-1,253,263,255,-1,255,263,264,-1,255,264,257,-1,257,264,265,-1,257,265,259,-1,259,265,266,-1,259,266,127,-1,127,266,124,-1,127,124,125,-1,125,124,123,-1,267,122,268,-1,268,122,124,-1,268,124,269,-1,269,124,266,-1,269,266,270,-1,270,266,265,-1,270,265,271,-1,271,265,264,-1,271,264,272,-1,272,264,263,-1,272,263,273,-1,273,263,262,-1,273,168,272,-1,272,168,170,-1,272,170,271,-1,271,170,172,-1,271,172,270,-1,270,172,174,-1,270,174,269,-1,269,174,176,-1,269,176,268,-1,268,176,178,-1,268,178,267,-1,267,178,274,-1,121,120,178,-1,178,120,275,-1,178,275,274,-1,117,119,118,-1,118,119,121,-1,118,121,276,-1,276,121,177,-1,276,177,277,-1,277,177,175,-1,277,175,278,-1,278,175,173,-1,278,173,279,-1,279,173,171,-1,279,171,280,-1,280,171,169,-1,281,116,282,-1,282,116,118,-1,282,118,283,-1,283,118,276,-1,283,276,284,-1,284,276,277,-1,284,277,285,-1,285,277,278,-1,285,278,286,-1,286,278,279,-1,286,279,287,-1,287,279,280,-1,287,288,286,-1,286,288,289,-1,286,289,285,-1,285,289,290,-1,285,290,284,-1,284,290,291,-1,284,291,283,-1,283,291,292,-1,283,292,282,-1,282,292,115,-1,282,115,281,-1,281,115,114,-1,288,293,289,-1,289,293,294,-1,289,294,290,-1,290,294,295,-1,290,295,291,-1,291,295,296,-1,291,296,292,-1,292,296,297,-1,292,297,115,-1,115,297,112,-1,115,112,113,-1,113,112,111,-1,298,110,299,-1,299,110,112,-1,299,112,300,-1,300,112,297,-1,300,297,301,-1,301,297,296,-1,301,296,302,-1,302,296,295,-1,302,295,303,-1,303,295,294,-1,303,294,304,-1,304,294,293,-1,304,179,303,-1,303,179,181,-1,303,181,302,-1,302,181,183,-1,302,183,301,-1,301,183,185,-1,301,185,300,-1,300,185,187,-1,300,187,299,-1,299,187,189,-1,299,189,298,-1,298,189,305,-1,109,108,189,-1,189,108,306,-1,189,306,305,-1,105,107,106,-1,106,107,109,-1,106,109,307,-1,307,109,188,-1,307,188,308,-1,308,188,186,-1,308,186,309,-1,309,186,184,-1,309,184,310,-1,310,184,182,-1,310,182,311,-1,311,182,180,-1,312,104,313,-1,313,104,106,-1,313,106,314,-1,314,106,307,-1,314,307,315,-1,315,307,308,-1,315,308,316,-1,316,308,309,-1,316,309,317,-1,317,309,310,-1,317,310,318,-1,318,310,311,-1,318,319,317,-1,317,319,320,-1,317,320,316,-1,316,320,321,-1,316,321,315,-1,315,321,322,-1,315,322,314,-1,314,322,323,-1,314,323,313,-1,313,323,103,-1,313,103,312,-1,312,103,102,-1,319,324,320,-1,320,324,325,-1,320,325,321,-1,321,325,326,-1,321,326,322,-1,322,326,327,-1,322,327,323,-1,323,327,328,-1,323,328,103,-1,103,328,100,-1,103,100,101,-1,101,100,99,-1,329,98,330,-1,330,98,100,-1,330,100,331,-1,331,100,328,-1,331,328,332,-1,332,328,327,-1,332,327,333,-1,333,327,326,-1,333,326,334,-1,334,326,325,-1,334,325,335,-1,335,325,324,-1,335,190,334,-1,334,190,192,-1,334,192,333,-1,333,192,194,-1,333,194,332,-1,332,194,196,-1,332,196,331,-1,331,196,198,-1,331,198,330,-1,330,198,200,-1,330,200,329,-1,329,200,336,-1,97,96,200,-1,200,96,337,-1,200,337,336,-1,191,338,193,-1,193,338,339,-1,193,339,195,-1,195,339,340,-1,195,340,197,-1,197,340,341,-1,197,341,199,-1,199,341,342,-1,199,342,97,-1,97,342,94,-1,97,94,95,-1,95,94,93,-1,343,92,344,-1,344,92,94,-1,344,94,345,-1,345,94,342,-1,345,342,346,-1,346,342,341,-1,346,341,347,-1,347,341,340,-1,347,340,348,-1,348,340,339,-1,348,339,349,-1,349,339,338,-1,349,161,348,-1,348,161,163,-1,348,163,347,-1,347,163,350,-1,347,350,346,-1,346,350,351,-1,346,351,345,-1,345,351,352,-1,345,352,344,-1,344,352,91,-1,344,91,343,-1,343,91,90,-1,162,353,163,-1,163,353,354,-1,163,354,350,-1,350,354,355,-1,350,355,351,-1,351,355,356,-1,351,356,352,-1,352,356,357,-1,352,357,91,-1,91,357,88,-1,91,88,89,-1,89,88,87,-1,358,86,359,-1,359,86,88,-1,359,88,360,-1,360,88,357,-1,360,357,361,-1,361,357,356,-1,361,356,362,-1,362,356,355,-1,362,355,160,-1,160,355,354,-1,160,354,164,-1,164,354,353,-1,159,363,160,-1,160,363,364,-1,160,364,362,-1,362,364,365,-1,362,365,361,-1,361,365,366,-1,361,366,360,-1,360,366,367,-1,360,367,359,-1,359,367,85,-1,359,85,358,-1,358,85,84,-1,81,83,82,-1,82,83,85,-1,82,85,368,-1,368,85,367,-1,368,367,369,-1,369,367,366,-1,369,366,370,-1,370,366,365,-1,370,365,157,-1,157,365,364,-1,157,364,155,-1,155,364,363,-1,156,371,157,-1,157,371,372,-1,157,372,370,-1,370,372,373,-1,370,373,369,-1,369,373,374,-1,369,374,368,-1,368,374,375,-1,368,375,82,-1,82,375,79,-1,82,79,80,-1,80,79,78,-1,376,77,377,-1,377,77,79,-1,377,79,378,-1,378,79,375,-1,378,375,379,-1,379,375,374,-1,379,374,380,-1,380,374,373,-1,380,373,154,-1,154,373,372,-1,154,372,165,-1,165,372,371,-1,153,201,154,-1,154,201,202,-1,154,202,380,-1,380,202,203,-1,380,203,379,-1,379,203,205,-1,379,205,378,-1,378,205,207,-1,378,207,377,-1,377,207,209,-1,377,209,376,-1,376,209,381,-1,76,75,209,-1,209,75,382,-1,209,382,381,-1,383,74,384,-1,384,74,76,-1,384,76,385,-1,385,76,208,-1,385,208,386,-1,386,208,206,-1,386,206,387,-1,387,206,204,-1,387,204,148,-1,148,204,151,-1,148,151,146,-1,146,151,150,-1,147,388,148,-1,148,388,389,-1,148,389,387,-1,387,389,390,-1,387,390,386,-1,386,390,391,-1,386,391,385,-1,385,391,392,-1,385,392,384,-1,384,392,393,-1,384,393,383,-1,383,393,394,-1,388,395,389,-1,389,395,396,-1,389,396,390,-1,390,396,397,-1,390,397,391,-1,391,397,398,-1,391,398,392,-1,392,398,399,-1,392,399,393,-1,393,399,73,-1,393,73,394,-1,394,73,72,-1,395,143,396,-1,396,143,145,-1,396,145,397,-1,397,145,400,-1,397,400,398,-1,398,400,401,-1,398,401,399,-1,399,401,402,-1,399,402,73,-1,73,402,70,-1,73,70,71,-1,71,70,69,-1,403,68,404,-1,404,68,70,-1,404,70,405,-1,405,70,402,-1,405,402,406,-1,406,402,401,-1,406,401,407,-1,407,401,400,-1,407,400,142,-1,142,400,145,-1,142,145,140,-1,140,145,144,-1,141,210,142,-1,142,210,211,-1,142,211,407,-1,407,211,212,-1,407,212,406,-1,406,212,214,-1,406,214,405,-1,405,214,216,-1,405,216,404,-1,404,216,218,-1,404,218,403,-1,403,218,408,-1,67,66,218,-1,218,66,409,-1,218,409,408,-1,63,65,64,-1,64,65,67,-1,64,67,410,-1,410,67,217,-1,410,217,411,-1,411,217,215,-1,411,215,412,-1,412,215,213,-1,412,213,413,-1,413,213,139,-1,413,139,414,-1,414,139,138,-1,415,62,416,-1,416,62,64,-1,416,64,417,-1,417,64,410,-1,417,410,418,-1,418,410,411,-1,418,411,419,-1,419,411,412,-1,419,412,136,-1,136,412,413,-1,136,413,166,-1,166,413,414,-1,135,420,136,-1,136,420,421,-1,136,421,419,-1,419,421,422,-1,419,422,418,-1,418,422,423,-1,418,423,417,-1,417,423,424,-1,417,424,416,-1,416,424,61,-1,416,61,415,-1,415,61,60,-1,420,131,421,-1,421,131,133,-1,421,133,422,-1,422,133,425,-1,422,425,423,-1,423,425,426,-1,423,426,424,-1,424,426,427,-1,424,427,61,-1,61,427,58,-1,61,58,59,-1,59,58,57,-1,428,56,429,-1,429,56,58,-1,429,58,430,-1,430,58,427,-1,430,427,431,-1,431,427,426,-1,431,426,432,-1,432,426,425,-1,432,425,433,-1,433,425,133,-1,433,133,434,-1,434,133,132,-1,434,167,433,-1,433,167,130,-1,433,130,432,-1,432,130,221,-1,432,221,431,-1,431,221,223,-1,431,223,430,-1,430,223,225,-1,430,225,429,-1,429,225,227,-1,429,227,428,-1,428,227,435,-1,55,54,227,-1,227,54,436,-1,227,436,435,-1,51,53,52,-1,52,53,55,-1,52,55,437,-1,437,55,226,-1,437,226,438,-1,438,226,224,-1,438,224,439,-1,439,224,222,-1,439,222,440,-1,440,222,220,-1,440,220,441,-1,441,220,219,-1,442,50,443,-1,443,50,52,-1,443,52,444,-1,444,52,437,-1,444,437,445,-1,445,437,438,-1,445,438,446,-1,446,438,439,-1,446,439,447,-1,447,439,440,-1,447,440,448,-1,448,440,441,-1,448,449,447,-1,447,449,450,-1,447,450,446,-1,446,450,451,-1,446,451,445,-1,445,451,452,-1,445,452,444,-1,444,452,453,-1,444,453,443,-1,443,453,49,-1,443,49,442,-1,442,49,48,-1,449,454,450,-1,450,454,455,-1,450,455,451,-1,451,455,456,-1,451,456,452,-1,452,456,457,-1,452,457,453,-1,453,457,458,-1,453,458,49,-1,49,458,46,-1,49,46,47,-1,47,46,45,-1,459,44,460,-1,460,44,46,-1,460,46,461,-1,461,46,458,-1,461,458,462,-1,462,458,457,-1,462,457,463,-1,463,457,456,-1,463,456,464,-1,464,456,455,-1,464,455,465,-1,465,455,454,-1,465,228,464,-1,464,228,230,-1,464,230,463,-1,463,230,232,-1,463,232,462,-1,462,232,234,-1,462,234,461,-1,461,234,236,-1,461,236,460,-1,460,236,238,-1,460,238,459,-1,459,238,466,-1,43,42,238,-1,238,42,467,-1,238,467,466,-1,229,468,231,-1,231,468,469,-1,231,469,233,-1,233,469,470,-1,233,470,235,-1,235,470,471,-1,235,471,237,-1,237,471,472,-1,237,472,43,-1,43,472,40,-1,43,40,41,-1,41,40,39,-1,473,38,474,-1,474,38,40,-1,474,40,475,-1,475,40,472,-1,475,472,476,-1,476,472,471,-1,476,471,477,-1,477,471,470,-1,477,470,478,-1,478,470,469,-1,478,469,479,-1,479,469,468,-1,479,480,478,-1,478,480,481,-1,478,481,477,-1,477,481,482,-1,477,482,476,-1,476,482,483,-1,476,483,475,-1,475,483,484,-1,475,484,474,-1,474,484,37,-1,474,37,473,-1,473,37,36,-1,480,485,481,-1,481,485,486,-1,481,486,482,-1,482,486,487,-1,482,487,483,-1,483,487,488,-1,483,488,484,-1,484,488,489,-1,484,489,37,-1,37,489,34,-1,37,34,35,-1,35,34,33,-1,490,32,491,-1,491,32,34,-1,491,34,492,-1,492,34,489,-1,492,489,493,-1,493,489,488,-1,493,488,494,-1,494,488,487,-1,494,487,495,-1,495,487,486,-1,495,486,496,-1,496,486,485,-1,496,497,495,-1,495,497,498,-1,495,498,494,-1,494,498,499,-1,494,499,493,-1,493,499,500,-1,493,500,492,-1,492,500,501,-1,492,501,491,-1,491,501,31,-1,491,31,490,-1,490,31,30,-1,27,29,28,-1,28,29,31,-1,28,31,502,-1,502,31,501,-1,502,501,503,-1,503,501,500,-1,503,500,504,-1,504,500,499,-1,504,499,505,-1,505,499,498,-1,505,498,506,-1,506,498,497,-1,506,507,505,-1,505,507,508,-1,505,508,504,-1,504,508,509,-1,504,509,503,-1,503,509,510,-1,503,510,502,-1,502,510,511,-1,502,511,28,-1,28,511,25,-1,28,25,26,-1,26,25,24,-1,512,23,513,-1,513,23,25,-1,513,25,514,-1,514,25,511,-1,514,511,515,-1,515,511,510,-1,515,510,516,-1,516,510,509,-1,516,509,517,-1,517,509,508,-1,517,508,518,-1,518,508,507,-1,518,239,517,-1,517,239,241,-1,517,241,516,-1,516,241,243,-1,516,243,515,-1,515,243,245,-1,515,245,514,-1,514,245,247,-1,514,247,513,-1,513,247,249,-1,513,249,512,-1,512,249,519,-1,22,21,249,-1,249,21,520,-1,249,520,519,-1,521,20,522,-1,522,20,22,-1,522,22,523,-1,523,22,248,-1,523,248,524,-1,524,248,246,-1,524,246,525,-1,525,246,244,-1,525,244,526,-1,526,244,242,-1,526,242,527,-1,527,242,240,-1,527,250,526,-1,526,250,252,-1,526,252,525,-1,525,252,254,-1,525,254,524,-1,524,254,256,-1,524,256,523,-1,523,256,258,-1,523,258,522,-1,522,258,260,-1,522,260,521,-1,521,260,261,-1,
        ]
    }
}
Shape{
    appearance Appearance {
        material  Material 	{
            diffuseColor 0.0 0.0 0.0
            specularColor 0.0 0.0 0.0
            ambientIntensity 0.0
            transparency 0.0
            shininess 0.5
        }
    }
    geometry IndexedFaceSet {
        ccw TRUE
        solid FALSE
        coord DEF co Coordinate {
            point [
                -0.5852 1.0486 3.039, -0.5852 1.0486 3.0394, -0.6671 0.9984 3.0394, -0.8394 0.8579 3.0394, -0.8398 0.8583 3.039, -0.7188 0.9619 3.039, -0.7618 0.9282 3.0394, -0.7179 0.9608 3.0394, -0.8491 0.8491 3.0394, -0.9282 0.7618 3.0394, -0.946 0.7397 3.039, -1.1066 0.4655 3.0394, -1.1069 0.4656 3.039, -1.0355 0.608 3.039, -1.059 0.5661 3.0394, -0.9451 0.739 3.0394, -0.9984 0.6671 3.0394, -1.0343 0.6073 3.0394, -1.1094 0.4595 3.0394, -1.1491 0.3486 3.0394, -1.1587 0.315 3.039, -1.1889 0.1587 3.0394, -1.1902 0.1589 3.039, -1.1777 0.2343 3.0394, -1.1576 0.3147 3.0394, -1.195 0.1177 3.0394, -1.2008 0.0 3.0394, -1.2008 0.0 3.039, -1.195 -0.1177 3.0394, -1.1902 -0.1589 3.039, -1.1576 -0.3147 3.0394, -1.1587 -0.315 3.039, -1.1777 -0.2343 3.0394, -1.1889 -0.1587 3.0394, -1.1491 -0.3486 3.0394, -1.1094 -0.4595 3.0394, -1.1069 -0.4656 3.039, -1.1066 -0.4654 3.0394, -1.059 -0.566 3.0394, -1.0355 -0.6079 3.039, -0.9451 -0.739 3.0394, -0.946 -0.7396 3.039, -0.9984 -0.6671 3.0394, -1.0343 -0.6072 3.0394, -0.9282 -0.7618 3.0394, -0.8491 -0.8491 3.0394, -0.8398 -0.8583 3.039, -0.5852 -1.0485 3.0394, -0.5852 -1.0485 3.039, -0.7188 -0.9619 3.039, -0.6671 -0.9984 3.0394, -0.8394 -0.8579 3.0394, -0.7618 -0.9282 3.0394, -0.7179 -0.9607 3.0394, -0.213 -0.3764 0.0083, -0.2591 -0.4945 0.0083, -0.213 -0.3764 0.0079, -0.2591 -0.4945 0.0079, -0.2418 -0.4945 0.0083, -0.2418 -0.4945 0.0079, -0.2298 -0.4614 0.0083, -0.2298 -0.4614 0.0079, -0.1811 -0.4614 0.0083, -0.1811 -0.4614 0.0079, -0.1698 -0.4945 0.0083, -0.1698 -0.4945 0.0079, -0.1525 -0.4945 0.0083, -0.1525 -0.4945 0.0079, -0.1971 -0.3764 0.0083, -0.1971 -0.3764 0.0079, -0.185 -0.4484 0.0083, -0.2245 -0.4484 0.0083, -0.2027 -0.3991 0.0083, -0.2038 -0.395 0.0083, -0.2046 -0.3908 0.0083, -0.2049 -0.3908 0.0083, -0.2057 -0.395 0.0083, -0.2068 -0.3991 0.0083, -0.185 -0.4484 0.0079, -0.2245 -0.4484 0.0079, -0.2027 -0.3991 0.0079, -0.2038 -0.395 0.0079, -0.2046 -0.3908 0.0079, -0.2049 -0.3908 0.0079, -0.2057 -0.395 0.0079, -0.2068 -0.3991 0.0079, -0.0809 -0.4945 0.0083, -0.0488 -0.4945 0.0083, -0.0809 -0.4945 0.0079, -0.0488 -0.4945 0.0079, -0.0488 -0.3764 0.0083, -0.0488 -0.3764 0.0079, -0.0821 -0.3764 0.0083, -0.0821 -0.3764 0.0079, -0.1439 -0.434 0.0083, -0.1439 -0.434 0.0079, -0.143 -0.4228 0.0079, -0.143 -0.4228 0.0083, -0.1398 -0.4112 0.0079, -0.1398 -0.4112 0.0083, -0.1343 -0.4011 0.0079, -0.1343 -0.4011 0.0083, -0.126 -0.3918 0.0079, -0.126 -0.3918 0.0083, -0.1259 -0.3917 0.0079, -0.1259 -0.3917 0.0083, -0.113 -0.3831 0.0079, -0.113 -0.3831 0.0083, -0.0992 -0.3782 0.0079, -0.0992 -0.3782 0.0083, -0.0955 -0.4932 0.0079, -0.0955 -0.4932 0.0083, -0.1091 -0.4892 0.0079, -0.1091 -0.4892 0.0083, -0.1215 -0.482 0.0079, -0.1215 -0.482 0.0083, -0.1312 -0.4727 0.0079, -0.1312 -0.4727 0.0083, -0.138 -0.4621 0.0079, -0.138 -0.4621 0.0083, -0.1422 -0.4498 0.0079, -0.1422 -0.4498 0.0083, -0.1201 -0.4059 0.0083, -0.1144 -0.3998 0.0083, -0.1058 -0.3942 0.0083, -0.096 -0.3908 0.0083, -0.0821 -0.3894 0.0083, -0.0646 -0.3894 0.0083, -0.0646 -0.4815 0.0083, -0.0814 -0.4815 0.0083, -0.0939 -0.4804 0.0083, -0.1038 -0.4773 0.0083, -0.1119 -0.4725 0.0083, -0.1185 -0.4659 0.0083, -0.1235 -0.4578 0.0083, -0.1269 -0.4467 0.0083, -0.128 -0.4343 0.0083, -0.127 -0.4225 0.0083, -0.1243 -0.4132 0.0083, -0.0821 -0.3894 0.0079, -0.0646 -0.3894 0.0079, -0.096 -0.3908 0.0079, -0.1058 -0.3942 0.0079, -0.1144 -0.3998 0.0079, -0.1201 -0.4059 0.0079, -0.1243 -0.4132 0.0079, -0.127 -0.4225 0.0079, -0.128 -0.4343 0.0079, -0.1269 -0.4467 0.0079, -0.1235 -0.4578 0.0079, -0.1185 -0.4659 0.0079, -0.1119 -0.4725 0.0079, -0.1038 -0.4773 0.0079, -0.0939 -0.4804 0.0079, -0.0814 -0.4815 0.0079, -0.0646 -0.4815 0.0079, -0.0257 -0.4815 0.0083, -0.0257 -0.4945 0.0083, -0.0257 -0.4815 0.0079, -0.0257 -0.4945 0.0079, 0.0376 -0.4945 0.0083, 0.0376 -0.4945 0.0079, 0.0376 -0.3764 0.0083, 0.0376 -0.3764 0.0079, -0.0229 -0.3764 0.0083, -0.0229 -0.3764 0.0079, -0.0229 -0.3894 0.0083, -0.0229 -0.3894 0.0079, 0.0218 -0.3894 0.0083, 0.0218 -0.3894 0.0079, 0.0218 -0.4282 0.0083, 0.0218 -0.4282 0.0079, -0.02 -0.4282 0.0083, -0.02 -0.4282 0.0079, -0.02 -0.4412 0.0083, -0.02 -0.4412 0.0079, 0.0218 -0.4412 0.0083, 0.0218 -0.4412 0.0079, 0.0218 -0.4815 0.0083, 0.0218 -0.4815 0.0079, 0.0607 -0.4754 0.0083, 0.0607 -0.4884 0.0083, 0.0607 -0.4754 0.0079, 0.0607 -0.4884 0.0079, 0.0733 -0.4935 0.0083, 0.0932 -0.4959 0.0083, 0.0932 -0.4959 0.0079, 0.0899 -0.4959 0.0079, 0.0899 -0.4959 0.0083, 0.0852 -0.4952 0.0079, 0.0733 -0.4935 0.0079, 0.1001 -0.4952 0.0079, 0.1077 -0.4944 0.0083, 0.1077 -0.4944 0.0079, 0.1192 -0.4905 0.0083, 0.1192 -0.4905 0.0079, 0.1287 -0.4844 0.0083, 0.1287 -0.4844 0.0079, 0.1376 -0.4751 0.0083, 0.1376 -0.4751 0.0079, 0.1438 -0.4639 0.0083, 0.1438 -0.4639 0.0079, 0.1474 -0.4514 0.0083, 0.1474 -0.4514 0.0079, 0.1485 -0.4377 0.0083, 0.1485 -0.4377 0.0079, 0.0885 -0.3749 0.0083, 0.0885 -0.3749 0.0079, 0.1003 -0.3759 0.0079, 0.1003 -0.3759 0.0083, 0.1135 -0.3797 0.0079, 0.1135 -0.3797 0.0083, 0.1247 -0.3862 0.0079, 0.1247 -0.3862 0.0083, 0.1354 -0.3965 0.0079, 0.1354 -0.3965 0.0083, 0.1423 -0.4075 0.0079, 0.1423 -0.4075 0.0083, 0.1468 -0.4209 0.0079, 0.1468 -0.4209 0.0083, 0.0607 -0.3796 0.0083, 0.0607 -0.3796 0.0079, 0.0743 -0.3759 0.0079, 0.0743 -0.3759 0.0083, 0.0607 -0.3955 0.0083, 0.0607 -0.3955 0.0079, 0.0883 -0.3879 0.0083, 0.0883 -0.3879 0.0079, 0.074 -0.3898 0.0079, 0.074 -0.3898 0.0083, 0.1327 -0.4367 0.0083, 0.1327 -0.4367 0.0079, 0.1321 -0.4275 0.0079, 0.1321 -0.4275 0.0083, 0.129 -0.4149 0.0079, 0.129 -0.4149 0.0083, 0.1241 -0.4058 0.0079, 0.1241 -0.4058 0.0083, 0.117 -0.3979 0.0079, 0.117 -0.3979 0.0083, 0.1088 -0.3924 0.0079, 0.1088 -0.3924 0.0083, 0.1 -0.3892 0.0079, 0.1 -0.3892 0.0083, 0.091 -0.483 0.0083, 0.091 -0.483 0.0079, 0.102 -0.4817 0.0079, 0.102 -0.4817 0.0083, 0.1106 -0.4786 0.0079, 0.1106 -0.4786 0.0083, 0.1179 -0.4737 0.0079, 0.1179 -0.4737 0.0083, 0.1234 -0.4678 0.0079, 0.1234 -0.4678 0.0083, 0.1283 -0.4596 0.0079, 0.1283 -0.4596 0.0083, 0.1315 -0.4495 0.0079, 0.1315 -0.4495 0.0083, 0.0628 -0.4766 0.0079, 0.0628 -0.4766 0.0083, 0.0753 -0.4812 0.0079, 0.0753 -0.4812 0.0083, 0.1586 -0.4815 0.0083, 0.1586 -0.4945 0.0083, 0.1586 -0.4815 0.0079, 0.1586 -0.4945 0.0079, 0.2191 -0.4945 0.0083, 0.2191 -0.4945 0.0079, 0.2191 -0.3764 0.0083, 0.2191 -0.3764 0.0079, 0.2033 -0.3764 0.0083, 0.2033 -0.3764 0.0079, 0.2033 -0.4815 0.0083, 0.2033 -0.4815 0.0079
            ]
        }
        coordIndex [
            0,1,2,-1,3,4,5,-1,3,5,6,-1,0,2,5,-1,5,2,7,-1,5,7,6,-1,3,8,4,-1,4,8,9,-1,4,9,10,-1,11,12,13,-1,11,13,14,-1,9,15,10,-1,10,15,16,-1,10,16,13,-1,13,16,17,-1,13,17,14,-1,11,18,12,-1,12,18,19,-1,12,19,20,-1,21,22,23,-1,23,22,20,-1,23,20,24,-1,24,20,19,-1,21,25,22,-1,22,25,26,-1,22,26,27,-1,27,26,28,-1,27,28,29,-1,30,31,32,-1,32,31,29,-1,32,29,33,-1,33,29,28,-1,30,34,31,-1,31,34,35,-1,31,35,36,-1,35,37,36,-1,36,37,38,-1,36,38,39,-1,40,41,42,-1,42,41,39,-1,42,39,43,-1,43,39,38,-1,40,44,41,-1,41,44,45,-1,41,45,46,-1,47,48,49,-1,47,49,50,-1,45,51,46,-1,46,51,52,-1,46,52,49,-1,49,52,53,-1,49,53,50,-1,0,48,1,-1,1,48,47,-1,0,5,48,-1,48,5,4,-1,48,4,10,-1,22,36,20,-1,20,36,12,-1,36,39,12,-1,12,39,41,-1,12,41,46,-1,22,27,36,-1,36,27,29,-1,36,29,31,-1,10,13,48,-1,48,13,12,-1,48,12,49,-1,49,12,46,-1,54,55,56,-1,56,55,57,-1,55,58,57,-1,57,58,59,-1,58,60,59,-1,59,60,61,-1,60,62,61,-1,61,62,63,-1,62,64,63,-1,63,64,65,-1,64,66,65,-1,65,66,67,-1,66,68,67,-1,67,68,69,-1,68,54,69,-1,69,54,56,-1,70,62,71,-1,71,62,60,-1,72,68,70,-1,70,68,66,-1,70,66,62,-1,62,66,64,-1,72,73,68,-1,68,73,74,-1,68,74,54,-1,54,74,75,-1,54,75,76,-1,76,77,54,-1,54,77,71,-1,54,71,55,-1,55,71,60,-1,55,60,58,-1,70,71,78,-1,78,71,79,-1,72,70,80,-1,80,70,78,-1,72,80,81,-1,72,81,73,-1,73,81,82,-1,73,82,74,-1,75,74,83,-1,83,74,82,-1,75,83,84,-1,75,84,76,-1,76,84,85,-1,76,85,77,-1,71,77,79,-1,79,77,85,-1,86,87,88,-1,88,87,89,-1,87,90,89,-1,89,90,91,-1,90,92,91,-1,91,92,93,-1,94,95,96,-1,94,96,97,-1,97,96,98,-1,97,98,99,-1,99,98,100,-1,99,100,101,-1,101,100,102,-1,101,102,103,-1,103,102,104,-1,103,104,105,-1,105,104,106,-1,105,106,107,-1,107,106,108,-1,107,108,109,-1,109,108,93,-1,109,93,92,-1,86,88,110,-1,86,110,111,-1,111,110,112,-1,111,112,113,-1,113,112,114,-1,113,114,115,-1,115,114,116,-1,115,116,117,-1,117,116,118,-1,117,118,119,-1,119,118,120,-1,119,120,121,-1,121,120,95,-1,121,95,94,-1,99,101,122,-1,122,101,103,-1,122,103,123,-1,123,103,105,-1,123,105,124,-1,124,105,107,-1,124,107,125,-1,125,107,109,-1,125,109,126,-1,126,109,92,-1,126,92,127,-1,127,92,90,-1,127,90,128,-1,128,90,87,-1,128,87,129,-1,129,87,86,-1,129,86,130,-1,130,86,111,-1,130,111,131,-1,131,111,113,-1,131,113,132,-1,132,113,115,-1,132,115,133,-1,133,115,117,-1,133,117,134,-1,134,117,119,-1,134,119,135,-1,135,119,121,-1,135,121,136,-1,136,121,94,-1,136,94,137,-1,137,94,97,-1,137,97,138,-1,138,97,99,-1,138,99,122,-1,126,127,139,-1,139,127,140,-1,126,139,141,-1,126,141,125,-1,125,141,142,-1,125,142,124,-1,124,142,143,-1,124,143,123,-1,123,143,144,-1,123,144,122,-1,122,144,145,-1,122,145,138,-1,138,145,146,-1,138,146,137,-1,137,146,147,-1,137,147,136,-1,136,147,148,-1,136,148,135,-1,135,148,149,-1,135,149,134,-1,134,149,150,-1,134,150,133,-1,133,150,151,-1,133,151,132,-1,132,151,152,-1,132,152,131,-1,131,152,153,-1,131,153,130,-1,130,153,154,-1,130,154,129,-1,128,129,155,-1,155,129,154,-1,127,128,140,-1,140,128,155,-1,156,157,158,-1,158,157,159,-1,157,160,159,-1,159,160,161,-1,160,162,161,-1,161,162,163,-1,162,164,163,-1,163,164,165,-1,164,166,165,-1,165,166,167,-1,166,168,167,-1,167,168,169,-1,168,170,169,-1,169,170,171,-1,170,172,171,-1,171,172,173,-1,172,174,173,-1,173,174,175,-1,174,176,175,-1,175,176,177,-1,176,178,177,-1,177,178,179,-1,178,156,179,-1,179,156,158,-1,160,157,156,-1,156,178,160,-1,160,178,176,-1,160,176,162,-1,166,164,168,-1,168,164,162,-1,168,162,170,-1,170,162,176,-1,170,176,172,-1,172,176,174,-1,180,181,182,-1,182,181,183,-1,183,181,184,-1,185,186,187,-1,185,187,188,-1,188,187,189,-1,188,189,184,-1,184,189,190,-1,184,190,183,-1,186,185,191,-1,191,185,192,-1,191,192,193,-1,193,192,194,-1,193,194,195,-1,195,194,196,-1,195,196,197,-1,197,196,198,-1,197,198,199,-1,199,198,200,-1,199,200,201,-1,201,200,202,-1,201,202,203,-1,203,202,204,-1,203,204,205,-1,206,207,208,-1,206,208,209,-1,209,208,210,-1,209,210,211,-1,211,210,212,-1,211,212,213,-1,213,212,214,-1,213,214,215,-1,215,214,216,-1,215,216,217,-1,217,216,218,-1,217,218,219,-1,219,218,205,-1,219,205,204,-1,220,221,222,-1,220,222,223,-1,223,222,207,-1,223,207,206,-1,220,224,221,-1,221,224,225,-1,226,227,228,-1,226,228,229,-1,229,228,225,-1,229,225,224,-1,230,231,232,-1,230,232,233,-1,233,232,234,-1,233,234,235,-1,235,234,236,-1,235,236,237,-1,237,236,238,-1,237,238,239,-1,239,238,240,-1,239,240,241,-1,241,240,242,-1,241,242,243,-1,243,242,227,-1,243,227,226,-1,244,245,246,-1,244,246,247,-1,247,246,248,-1,247,248,249,-1,249,248,250,-1,249,250,251,-1,251,250,252,-1,251,252,253,-1,253,252,254,-1,253,254,255,-1,255,254,256,-1,255,256,257,-1,257,256,231,-1,257,231,230,-1,180,182,258,-1,180,258,259,-1,259,258,260,-1,259,260,261,-1,261,260,245,-1,261,245,244,-1,247,185,244,-1,244,185,188,-1,244,188,261,-1,261,188,184,-1,261,184,259,-1,259,184,181,-1,259,181,180,-1,224,220,229,-1,229,220,223,-1,229,223,226,-1,226,223,206,-1,226,206,243,-1,243,206,209,-1,243,209,241,-1,241,209,211,-1,241,211,239,-1,239,211,213,-1,239,213,237,-1,237,213,215,-1,237,215,235,-1,235,215,217,-1,235,217,233,-1,233,217,219,-1,233,219,230,-1,230,219,204,-1,230,204,257,-1,257,204,202,-1,257,202,255,-1,255,202,200,-1,255,200,253,-1,253,200,198,-1,253,198,251,-1,251,198,196,-1,251,196,249,-1,249,196,194,-1,249,194,247,-1,247,194,192,-1,247,192,185,-1,262,263,264,-1,264,263,265,-1,263,266,265,-1,265,266,267,-1,266,268,267,-1,267,268,269,-1,268,270,269,-1,269,270,271,-1,270,272,271,-1,271,272,273,-1,272,262,273,-1,273,262,264,-1,270,268,272,-1,272,268,266,-1,272,266,262,-1,262,266,263,-1,
        ]
    }
}
Shape{
    appearance Appearance {
        material  Material 	{
            diffuseColor 0.25098039215686274 0.25098039215686274 0.25098039215686274
            specularColor 0.12549019607843137 0.12549019607843137 0.12549019607843137
            ambientIntensity 0.251
            transparency 0.0
            shininess 0.5
        }
    }
    geometry IndexedFaceSet {
        ccw TRUE
        solid FALSE
        coord DEF co Coordinate {
            point [
                -0.185 -0.4484 0.0079, -0.2245 -0.4484 0.0079, -0.2027 -0.3991 0.0079, -0.2068 -0.3991 0.0079, -0.2038 -0.395 0.0079, -0.2057 -0.395 0.0079, -0.2046 -0.3908 0.0079, -0.2049 -0.3908 0.0079, -0.0646 -0.3894 0.0079, -0.0646 -0.4815 0.0079, -0.0821 -0.3894 0.0079, -0.0814 -0.4815 0.0079, -0.0939 -0.4804 0.0079, -0.128 -0.4343 0.0079, -0.127 -0.4225 0.0079, -0.1243 -0.4132 0.0079, -0.096 -0.3908 0.0079, -0.1038 -0.4773 0.0079, -0.1119 -0.4725 0.0079, -0.1185 -0.4659 0.0079, -0.1235 -0.4578 0.0079, -0.1269 -0.4467 0.0079, -0.1201 -0.4059 0.0079, -0.1144 -0.3998 0.0079, -0.1058 -0.3942 0.0079
            ]
        }
        coordIndex [
            0,1,2,-1,2,1,3,-1,2,3,4,-1,4,3,5,-1,4,5,6,-1,6,5,7,-1,8,9,10,-1,10,9,11,-1,10,11,12,-1,13,14,10,-1,10,14,15,-1,10,15,16,-1,12,17,10,-1,10,17,18,-1,10,18,19,-1,19,20,10,-1,10,20,21,-1,10,21,13,-1,22,23,15,-1,15,23,24,-1,15,24,16,-1,
        ]
    }
}